<?xml version="1.0" encoding="utf-8"?>
<!-- Generator: Adobe Illustrator 27.2.0, SVG Export Plug-In . SVG Version: 6.00 Build 0)  -->
<svg version="1.1" xmlns="http://www.w3.org/2000/svg" xmlns:xlink="http://www.w3.org/1999/xlink" x="0px" y="0px"
	 viewBox="0 0 1000 400" style="enable-background:new 0 0 1000 400;" xml:space="preserve">
<style type="text/css">
	.st0{fill:none;}
	.st1{fill:none;stroke:#D3D3D3;stroke-width:1.07;stroke-linejoin:round;stroke-miterlimit:10;}
	.st2{fill:none;stroke:#FFA500;stroke-width:4.27;stroke-linejoin:round;stroke-miterlimit:10;}
	.st3{fill:#4D4D4D;}
	.st4{font-family:'ArialMT';}
	.st5{font-size:8.8px;}
	.st6{stroke:#333333;stroke-width:1.07;stroke-linejoin:round;stroke-miterlimit:10;}
	.st7{fill:none;stroke:#333333;stroke-width:1.07;stroke-linejoin:round;stroke-miterlimit:10;}
	.st8{font-family:'MyriadPro-Regular';}
	.st9{font-size:12px;}
	.st10{fill:#F49700;}
	.st11{fill:none;stroke:#F49700;stroke-width:3;stroke-miterlimit:10;}
	.st12{font-size:15px;}
</style>
<g id="Layer_1">
	<rect class="st0" width="1000" height="400"/>
	<polyline class="st1" points="77,158.2 79.4,157.9 81.8,157.9 84.2,157.9 86.6,157.9 89,157.9 91.4,157.7 93.8,157.7 96.2,157.7 
		98.6,157.7 101,157.4 103.4,157.4 105.8,157.4 108.2,157.1 110.6,157.1 113,157.1 115.4,156.9 117.8,156.9 120.2,156.6 
		122.6,156.6 125,156.6 127.4,156.3 129.8,156.3 132.2,156.1 134.6,156.1 137,155.8 139.4,155.8 141.8,155.5 144.2,155.5 
		146.6,155.3 149,155.3 151.4,155 153.8,155 156.2,154.7 158.6,154.7 161,154.5 163.4,154.5 165.8,154.2 168.2,154.2 170.6,153.9 
		173,153.9 175.4,153.7 177.8,153.4 180.2,153.4 182.6,153.1 185,153.1 187.4,152.9 189.8,152.6 192.2,152.6 194.6,152.3 197,152.3 
		199.4,152.1 201.8,151.8 204.2,151.8 206.6,151.5 209,151.3 211.4,151.3 213.8,151 216.2,150.7 218.6,150.7 221,150.5 223.4,150.2 
		225.8,150.2 228.2,149.9 230.6,149.7 233,149.7 235.4,149.4 237.8,149.1 240.2,149.1 242.6,148.9 245,148.6 247.4,148.6 
		249.8,148.3 252.2,148.1 254.6,148.1 257,147.8 259.4,147.5 261.8,147.5 264.2,147.3 266.6,147 269,147 271.4,146.7 273.8,146.5 
		276.2,146.5 278.6,146.2 281,145.9 283.4,145.9 285.8,145.7 288.2,145.4 290.6,145.4 293,145.1 295.4,144.9 297.8,144.9 
		300.2,144.6 302.6,144.3 305,144.3 307.4,144.1 309.8,143.8 312.2,143.8 314.6,143.5 317,143.3 319.4,143.3 321.8,143 324.2,142.7 
		326.6,142.7 329,142.5 331.4,142.5 333.8,142.2 336.2,141.9 338.6,141.9 341,141.7 343.4,141.4 345.8,141.4 348.2,141.1 
		350.6,141.1 353,140.9 355.5,140.6 357.9,140.6 360.2,140.3 362.6,140.3 365,140.1 367.5,139.8 369.9,139.8 372.2,139.5 
		374.6,139.5 377,139.3 379.5,139.3 381.9,139 384.2,139 386.7,138.7 389.1,138.7 391.5,138.5 393.9,138.5 396.3,138.2 398.7,138.2 
		401.1,137.9 403.5,137.9 405.9,137.7 408.3,137.7 410.7,137.4 413.1,137.4 415.5,137.4 417.9,137.1 420.3,137.1 422.7,137.1 
		425.1,136.9 427.5,136.9 429.9,136.6 432.3,136.6 434.7,136.6 437.1,136.6 439.5,136.4 441.9,136.4 444.3,136.4 446.7,136.1 
		449.1,136.1 451.5,136.1 453.9,136.1 456.3,136.1 458.7,135.8 461.1,135.8 463.5,135.8 465.9,135.8 468.3,135.8 470.7,135.8 
		473.1,135.8 475.5,135.8 477.9,135.6 480.3,135.6 482.7,135.6 485.1,135.6 487.5,135.6 489.9,135.6 492.3,135.6 494.7,135.6 
		497.1,135.6 499.5,135.6 501.9,135.8 504.3,135.8 506.7,135.8 509.1,135.8 511.5,135.8 513.9,135.8 516.3,135.8 518.7,136.1 
		521.1,136.1 523.5,136.1 525.9,136.1 528.3,136.1 530.7,136.4 533.1,136.4 535.5,136.4 537.9,136.4 540.3,136.6 542.7,136.6 
		545.1,136.6 547.5,136.9 549.9,136.9 552.3,136.9 554.7,137.1 557.1,137.1 559.5,137.4 561.9,137.4 564.3,137.4 566.7,137.7 
		569.1,137.7 571.5,137.9 573.9,137.9 576.3,137.9 578.7,138.2 581.1,138.2 583.5,138.5 585.9,138.5 588.3,138.7 590.7,138.7 
		593.1,139 595.5,139 597.9,139.3 600.3,139.3 602.7,139.5 605.1,139.8 607.5,139.8 609.9,140.1 612.3,140.1 614.7,140.3 
		617.1,140.3 619.5,140.6 621.9,140.9 624.3,140.9 626.7,141.1 629.1,141.1 631.5,141.4 633.9,141.7 636.3,141.7 638.7,141.9 
		641.1,141.9 643.5,142.2 645.9,142.5 648.3,142.5 650.7,142.7 653.1,143 655.5,143 657.9,143.3 660.3,143.3 662.7,143.5 
		665.1,143.8 667.5,143.8 669.9,144.1 672.3,144.3 674.7,144.3 677.1,144.6 679.5,144.9 682,144.9 684.3,145.1 686.8,145.4 
		689.2,145.4 691.5,145.7 694,145.9 696.3,145.9 698.8,146.2 701.2,146.5 703.5,146.5 706,146.7 708.3,147 710.8,147 713.2,147.3 
		715.6,147.5 718,147.5 720.4,147.8 722.8,148.1 725.2,148.1 727.6,148.3 730,148.6 732.4,148.6 734.8,148.9 737.2,149.1 
		739.6,149.1 742,149.4 744.4,149.7 746.8,149.7 749.2,149.9 751.6,150.2 754,150.2 756.4,150.5 758.8,150.5 761.2,150.7 763.6,151 
		766,151 768.4,151.3 770.8,151.5 773.2,151.5 775.6,151.8 778,152.1 780.4,152.1 782.8,152.3 785.2,152.3 787.6,152.6 790,152.9 
		792.4,152.9 794.8,153.1 797.2,153.1 799.6,153.4 802,153.7 804.4,153.7 806.8,153.9 809.2,153.9 811.6,154.2 814,154.2 
		816.4,154.5 818.8,154.5 821.2,154.7 823.6,155 826,155 828.4,155.3 830.8,155.3 833.2,155.5 835.6,155.5 838,155.8 840.4,155.8 
		842.8,155.8 845.2,156.1 847.6,156.1 850,156.3 852.4,156.3 854.8,156.6 857.2,156.6 859.6,156.6 862,156.9 864.4,156.9 
		866.8,157.1 869.2,157.1 871.6,157.1 874,157.4 876.4,157.4 878.8,157.4 881.2,157.4 883.6,157.7 886,157.7 888.4,157.7 
		890.8,157.9 893.2,157.9 895.6,157.9 898,157.9 900.4,157.9 902.8,158.2 905.2,158.2 907.6,158.2 910,158.2 912.4,158.2 
		914.8,158.2 917.2,158.2 919.6,158.2 922,158.2 924.4,158.2 926.8,158.2 929.2,158.2 931.6,158.2 934,158.2 936.4,158.2 
		938.8,158.2 941.2,158.2 943.6,158.2 946,158.2 948.4,158.2 950.8,158.2 	"/>
	<polyline class="st1" points="77,183.5 79.4,183.5 81.8,183.2 84.2,183 86.6,183 89,182.7 91.4,182.4 93.8,182.2 96.2,181.9 
		98.6,181.6 101,181.4 103.4,181.1 105.8,180.9 108.2,180.6 110.6,180.3 113,180.1 115.4,179.5 117.8,179.2 120.2,179 122.6,178.4 
		125,178.2 127.4,177.6 129.8,177.4 132.2,176.9 134.6,176.6 137,176.1 139.4,175.8 141.8,175.2 144.2,174.7 146.6,174.4 149,173.9 
		151.4,173.4 153.8,172.9 156.2,172.6 158.6,172.1 161,171.5 163.4,171 165.8,170.4 168.2,169.9 170.6,169.4 173,168.9 175.4,168.6 
		177.8,168.1 180.2,167.5 182.6,167 185,166.5 187.4,165.9 189.8,165.1 192.2,164.6 194.6,164.1 197,163.5 199.4,163 201.8,162.5 
		204.2,161.9 206.6,161.4 209,160.9 211.4,160.3 213.8,159.5 216.2,159 218.6,158.5 221,157.9 223.4,157.4 225.8,156.9 228.2,156.1 
		230.6,155.5 233,155 235.4,154.5 237.8,153.9 240.2,153.1 242.6,152.6 245,152.1 247.4,151.5 249.8,150.7 252.2,150.2 254.6,149.7 
		257,149.1 259.4,148.6 261.8,147.8 264.2,147.3 266.6,146.7 269,146.2 271.4,145.4 273.8,144.9 276.2,144.3 278.6,143.8 281,143.3 
		283.4,142.5 285.8,141.9 288.2,141.4 290.6,140.9 293,140.3 295.4,139.5 297.8,139 300.2,138.5 302.6,137.9 305,137.4 307.4,136.9 
		309.8,136.1 312.2,135.6 314.6,135 317,134.5 319.4,133.9 321.8,133.4 324.2,132.9 326.6,132.1 329,131.6 331.4,131 333.8,130.5 
		336.2,129.9 338.6,129.4 341,128.9 343.4,128.4 345.8,127.8 348.2,127.3 350.6,126.8 353,126.2 355.5,125.7 357.9,125.2 
		360.2,124.6 362.6,124.1 365,123.6 367.5,123 369.9,122.8 372.2,122.2 374.6,121.7 377,121.2 379.5,120.6 381.9,120.4 384.2,119.8 
		386.7,119.3 389.1,118.8 391.5,118.5 393.9,118 396.3,117.4 398.7,117.2 401.1,116.6 403.5,116.4 405.9,115.8 408.3,115.6 
		410.7,115 413.1,114.8 415.5,114.5 417.9,114 420.3,113.7 422.7,113.4 425.1,113.2 427.5,112.6 429.9,112.4 432.3,112.1 
		434.7,111.8 437.1,111.6 439.5,111.3 441.9,111 444.3,110.8 446.7,110.5 449.1,110.5 451.5,110.2 453.9,110 456.3,109.7 
		458.7,109.7 461.1,109.4 463.5,109.4 465.9,109.2 468.3,109.2 470.7,108.9 473.1,108.9 475.5,108.9 477.9,108.9 480.3,108.6 
		482.7,108.6 485.1,108.6 487.5,108.6 489.9,108.6 492.3,108.6 494.7,108.6 497.1,108.6 499.5,108.9 501.9,108.9 504.3,108.9 
		506.7,108.9 509.1,109.2 511.5,109.2 513.9,109.4 516.3,109.4 518.7,109.7 521.1,109.7 523.5,110 525.9,110.2 528.3,110.5 
		530.7,110.5 533.1,110.8 535.5,111 537.9,111.3 540.3,111.6 542.7,111.8 545.1,112.1 547.5,112.4 549.9,112.6 552.3,113.2 
		554.7,113.4 557.1,113.7 559.5,114 561.9,114.5 564.3,114.8 566.7,115 569.1,115.6 571.5,115.8 573.9,116.4 576.3,116.6 
		578.7,117.2 581.1,117.4 583.5,118 585.9,118.2 588.3,118.8 590.7,119.3 593.1,119.6 595.5,120.1 597.9,120.6 600.3,121.2 
		602.7,121.4 605.1,122 607.5,122.5 609.9,123 612.3,123.6 614.7,124.1 617.1,124.4 619.5,124.9 621.9,125.4 624.3,125.9 
		626.7,126.5 629.1,127 631.5,127.6 633.9,128.1 636.3,128.6 638.7,129.1 641.1,129.7 643.5,130.2 645.9,130.8 648.3,131.3 
		650.7,131.8 653.1,132.4 655.5,132.9 657.9,133.7 660.3,134.2 662.7,134.8 665.1,135.3 667.5,135.8 669.9,136.4 672.3,136.9 
		674.7,137.4 677.1,138.2 679.5,138.7 682,139.3 684.3,139.8 686.8,140.3 689.2,140.9 691.5,141.7 694,142.2 696.3,142.7 
		698.8,143.3 701.2,143.8 703.5,144.3 706,145.1 708.3,145.7 710.8,146.2 713.2,146.7 715.6,147.3 718,148.1 720.4,148.6 
		722.8,149.1 725.2,149.7 727.6,150.2 730,150.7 732.4,151.5 734.8,152.1 737.2,152.6 739.6,153.1 742,153.7 744.4,154.5 746.8,155 
		749.2,155.5 751.6,156.1 754,156.6 756.4,157.1 758.8,157.7 761.2,158.5 763.6,159 766,159.5 768.4,160.1 770.8,160.6 773.2,161.1 
		775.6,161.7 778,162.2 780.4,162.7 782.8,163.5 785.2,164.1 787.6,164.6 790,165.1 792.4,165.7 794.8,166.2 797.2,166.7 
		799.6,167.3 802,167.8 804.4,168.3 806.8,168.9 809.2,169.4 811.6,169.6 814,170.2 816.4,170.7 818.8,171.2 821.2,171.8 
		823.6,172.3 826,172.6 828.4,173.1 830.8,173.6 833.2,174.2 835.6,174.4 838,175 840.4,175.5 842.8,175.8 845.2,176.3 847.6,176.6 
		850,177.1 852.4,177.4 854.8,177.9 857.2,178.2 859.6,178.7 862,179 864.4,179.2 866.8,179.8 869.2,180.1 871.6,180.3 874,180.6 
		876.4,180.9 878.8,181.1 881.2,181.4 883.6,181.6 886,181.9 888.4,182.2 890.8,182.4 893.2,182.7 895.6,183 898,183 900.4,183.2 
		902.8,183.5 905.2,183.5 907.6,183.8 910,183.8 912.4,184 914.8,184 917.2,184 919.6,184.3 922,184.3 924.4,184.3 926.8,184.3 
		929.2,184.3 931.6,184.3 934,184.3 936.4,184.3 938.8,184.3 941.2,184 943.6,184 946,184 948.4,183.8 950.8,183.8 	"/>
	<polyline class="st1" points="77,145.9 79.4,145.9 81.8,145.9 84.2,145.9 86.6,145.9 89,145.9 91.4,145.9 93.8,145.9 96.2,145.9 
		98.6,145.9 101,145.9 103.4,145.9 105.8,145.9 108.2,145.9 110.6,145.9 113,145.9 115.4,145.9 117.8,145.9 120.2,145.9 
		122.6,145.9 125,146.2 127.4,146.2 129.8,146.2 132.2,146.2 134.6,146.2 137,146.2 139.4,146.2 141.8,146.2 144.2,146.2 
		146.6,146.2 149,146.2 151.4,146.2 153.8,146.2 156.2,146.2 158.6,146.5 161,146.5 163.4,146.5 165.8,146.5 168.2,146.5 
		170.6,146.5 173,146.5 175.4,146.5 177.8,146.5 180.2,146.5 182.6,146.5 185,146.5 187.4,146.5 189.8,146.7 192.2,146.7 
		194.6,146.7 197,146.7 199.4,146.7 201.8,146.7 204.2,146.7 206.6,146.7 209,146.7 211.4,146.7 213.8,146.7 216.2,146.7 
		218.6,146.7 221,147 223.4,147 225.8,147 228.2,147 230.6,147 233,147 235.4,147 237.8,147 240.2,147 242.6,147 245,147 247.4,147 
		249.8,147 252.2,147.3 254.6,147.3 257,147.3 259.4,147.3 261.8,147.3 264.2,147.3 266.6,147.3 269,147.3 271.4,147.3 273.8,147.3 
		276.2,147.3 278.6,147.3 281,147.3 283.4,147.3 285.8,147.5 288.2,147.5 290.6,147.5 293,147.5 295.4,147.5 297.8,147.5 
		300.2,147.5 302.6,147.5 305,147.5 307.4,147.5 309.8,147.5 312.2,147.5 314.6,147.5 317,147.5 319.4,147.5 321.8,147.5 
		324.2,147.8 326.6,147.8 329,147.8 331.4,147.8 333.8,147.8 336.2,147.8 338.6,147.8 341,147.8 343.4,147.8 345.8,147.8 
		348.2,147.8 350.6,147.8 353,147.8 355.5,147.8 357.9,147.8 360.2,147.8 362.6,147.8 365,147.8 367.5,147.8 369.9,147.8 
		372.2,148.1 374.6,148.1 377,148.1 379.5,148.1 381.9,148.1 384.2,148.1 386.7,148.1 389.1,148.1 391.5,148.1 393.9,148.1 
		396.3,148.1 398.7,148.1 401.1,148.1 403.5,148.1 405.9,148.1 408.3,148.1 410.7,148.1 413.1,148.1 415.5,148.1 417.9,148.1 
		420.3,148.1 422.7,148.1 425.1,148.1 427.5,148.1 429.9,148.1 432.3,148.1 434.7,148.1 437.1,148.1 439.5,148.1 441.9,148.1 
		444.3,148.1 446.7,148.1 449.1,148.1 451.5,148.1 453.9,148.1 456.3,148.1 458.7,148.1 461.1,148.1 463.5,148.1 465.9,148.1 
		468.3,148.3 470.7,148.3 473.1,148.3 475.5,148.3 477.9,148.3 480.3,148.3 482.7,148.3 485.1,148.3 487.5,148.3 489.9,148.3 
		492.3,148.3 494.7,148.3 497.1,148.3 499.5,148.3 501.9,148.3 504.3,148.3 506.7,148.3 509.1,148.3 511.5,148.3 513.9,148.1 
		516.3,148.1 518.7,148.1 521.1,148.1 523.5,148.1 525.9,148.1 528.3,148.1 530.7,148.1 533.1,148.1 535.5,148.1 537.9,148.1 
		540.3,148.1 542.7,148.1 545.1,148.1 547.5,148.1 549.9,148.1 552.3,148.1 554.7,148.1 557.1,148.1 559.5,148.1 561.9,148.1 
		564.3,148.1 566.7,148.1 569.1,148.1 571.5,148.1 573.9,148.1 576.3,148.1 578.7,148.1 581.1,148.1 583.5,148.1 585.9,148.1 
		588.3,148.1 590.7,148.1 593.1,148.1 595.5,148.1 597.9,148.1 600.3,148.1 602.7,148.1 605.1,148.1 607.5,147.8 609.9,147.8 
		612.3,147.8 614.7,147.8 617.1,147.8 619.5,147.8 621.9,147.8 624.3,147.8 626.7,147.8 629.1,147.8 631.5,147.8 633.9,147.8 
		636.3,147.8 638.7,147.8 641.1,147.8 643.5,147.8 645.9,147.8 648.3,147.8 650.7,147.8 653.1,147.8 655.5,147.8 657.9,147.5 
		660.3,147.5 662.7,147.5 665.1,147.5 667.5,147.5 669.9,147.5 672.3,147.5 674.7,147.5 677.1,147.5 679.5,147.5 682,147.5 
		684.3,147.5 686.8,147.5 689.2,147.5 691.5,147.5 694,147.5 696.3,147.3 698.8,147.3 701.2,147.3 703.5,147.3 706,147.3 
		708.3,147.3 710.8,147.3 713.2,147.3 715.6,147.3 718,147.3 720.4,147.3 722.8,147.3 725.2,147.3 727.6,147.3 730,147 732.4,147 
		734.8,147 737.2,147 739.6,147 742,147 744.4,147 746.8,147 749.2,147 751.6,147 754,147 756.4,147 758.8,147 761.2,146.7 
		763.6,146.7 766,146.7 768.4,146.7 770.8,146.7 773.2,146.7 775.6,146.7 778,146.7 780.4,146.7 782.8,146.7 785.2,146.7 
		787.6,146.7 790,146.7 792.4,146.5 794.8,146.5 797.2,146.5 799.6,146.5 802,146.5 804.4,146.5 806.8,146.5 809.2,146.5 
		811.6,146.5 814,146.5 816.4,146.5 818.8,146.5 821.2,146.5 823.6,146.2 826,146.2 828.4,146.2 830.8,146.2 833.2,146.2 
		835.6,146.2 838,146.2 840.4,146.2 842.8,146.2 845.2,146.2 847.6,146.2 850,146.2 852.4,146.2 854.8,146.2 857.2,145.9 
		859.6,145.9 862,145.9 864.4,145.9 866.8,145.9 869.2,145.9 871.6,145.9 874,145.9 876.4,145.9 878.8,145.9 881.2,145.9 
		883.6,145.9 886,145.9 888.4,145.9 890.8,145.9 893.2,145.9 895.6,145.9 898,145.9 900.4,145.9 902.8,145.9 905.2,145.9 
		907.6,145.9 910,145.9 912.4,145.9 914.8,145.9 917.2,145.9 919.6,145.9 922,145.9 924.4,145.9 926.8,145.9 929.2,145.9 
		931.6,145.9 934,145.9 936.4,145.9 938.8,145.9 941.2,145.9 943.6,145.9 946,145.9 948.4,145.9 950.8,145.9 	"/>
	<polyline class="st1" points="77,160.9 79.4,160.9 81.8,160.6 84.2,160.6 86.6,160.6 89,160.6 91.4,160.3 93.8,160.3 96.2,160.3 
		98.6,160.1 101,160.1 103.4,160.1 105.8,159.8 108.2,159.8 110.6,159.5 113,159.5 115.4,159.3 117.8,159.3 120.2,159 122.6,159 
		125,158.7 127.4,158.7 129.8,158.5 132.2,158.5 134.6,158.2 137,158.2 139.4,157.9 141.8,157.7 144.2,157.7 146.6,157.4 149,157.4 
		151.4,157.1 153.8,156.9 156.2,156.9 158.6,156.6 161,156.3 163.4,156.3 165.8,156.1 168.2,155.8 170.6,155.8 173,155.5 
		175.4,155.3 177.8,155 180.2,155 182.6,154.7 185,154.5 187.4,154.2 189.8,154.2 192.2,153.9 194.6,153.7 197,153.4 199.4,153.4 
		201.8,153.1 204.2,152.9 206.6,152.6 209,152.3 211.4,152.3 213.8,152.1 216.2,151.8 218.6,151.5 221,151.3 223.4,151 225.8,151 
		228.2,150.7 230.6,150.5 233,150.2 235.4,149.9 237.8,149.7 240.2,149.7 242.6,149.4 245,149.1 247.4,148.9 249.8,148.6 
		252.2,148.3 254.6,148.3 257,148.1 259.4,147.8 261.8,147.5 264.2,147.3 266.6,147 269,147 271.4,146.7 273.8,146.5 276.2,146.2 
		278.6,145.9 281,145.7 283.4,145.7 285.8,145.4 288.2,145.1 290.6,144.9 293,144.6 295.4,144.3 297.8,144.3 300.2,144.1 
		302.6,143.8 305,143.5 307.4,143.3 309.8,143 312.2,143 314.6,142.7 317,142.5 319.4,142.2 321.8,141.9 324.2,141.9 326.6,141.7 
		329,141.4 331.4,141.1 333.8,140.9 336.2,140.9 338.6,140.6 341,140.3 343.4,140.1 345.8,140.1 348.2,139.8 350.6,139.5 353,139.3 
		355.5,139.3 357.9,139 360.2,138.7 362.6,138.5 365,138.5 367.5,138.2 369.9,137.9 372.2,137.7 374.6,137.7 377,137.4 379.5,137.1 
		381.9,137.1 384.2,136.9 386.7,136.9 389.1,136.6 391.5,136.4 393.9,136.4 396.3,136.1 398.7,135.8 401.1,135.8 403.5,135.6 
		405.9,135.6 408.3,135.3 410.7,135.3 413.1,135 415.5,135 417.9,134.8 420.3,134.8 422.7,134.5 425.1,134.5 427.5,134.2 
		429.9,134.2 432.3,134.2 434.7,133.9 437.1,133.9 439.5,133.7 441.9,133.7 444.3,133.7 446.7,133.4 449.1,133.4 451.5,133.4 
		453.9,133.4 456.3,133.1 458.7,133.1 461.1,133.1 463.5,133.1 465.9,132.9 468.3,132.9 470.7,132.9 473.1,132.9 475.5,132.9 
		477.9,132.9 480.3,132.9 482.7,132.9 485.1,132.9 487.5,132.9 489.9,132.9 492.3,132.9 494.7,132.9 497.1,132.9 499.5,132.9 
		501.9,132.9 504.3,132.9 506.7,132.9 509.1,132.9 511.5,133.1 513.9,133.1 516.3,133.1 518.7,133.1 521.1,133.1 523.5,133.4 
		525.9,133.4 528.3,133.4 530.7,133.4 533.1,133.7 535.5,133.7 537.9,133.7 540.3,133.9 542.7,133.9 545.1,134.2 547.5,134.2 
		549.9,134.2 552.3,134.5 554.7,134.5 557.1,134.8 559.5,134.8 561.9,135 564.3,135 566.7,135.3 569.1,135.3 571.5,135.6 
		573.9,135.6 576.3,135.8 578.7,136.1 581.1,136.1 583.5,136.4 585.9,136.4 588.3,136.6 590.7,136.9 593.1,136.9 595.5,137.1 
		597.9,137.1 600.3,137.4 602.7,137.7 605.1,137.7 607.5,137.9 609.9,138.2 612.3,138.5 614.7,138.5 617.1,138.7 619.5,139 
		621.9,139 624.3,139.3 626.7,139.5 629.1,139.8 631.5,139.8 633.9,140.1 636.3,140.3 638.7,140.6 641.1,140.6 643.5,140.9 
		645.9,141.1 648.3,141.4 650.7,141.7 653.1,141.7 655.5,141.9 657.9,142.2 660.3,142.5 662.7,142.5 665.1,142.7 667.5,143 
		669.9,143.3 672.3,143.5 674.7,143.8 677.1,143.8 679.5,144.1 682,144.3 684.3,144.6 686.8,144.9 689.2,144.9 691.5,145.1 
		694,145.4 696.3,145.7 698.8,145.9 701.2,146.2 703.5,146.2 706,146.5 708.3,146.7 710.8,147 713.2,147.3 715.6,147.5 718,147.5 
		720.4,147.8 722.8,148.1 725.2,148.3 727.6,148.6 730,148.9 732.4,148.9 734.8,149.1 737.2,149.4 739.6,149.7 742,149.9 
		744.4,149.9 746.8,150.2 749.2,150.5 751.6,150.7 754,151 756.4,151 758.8,151.3 761.2,151.5 763.6,151.8 766,152.1 768.4,152.1 
		770.8,152.3 773.2,152.6 775.6,152.9 778,153.1 780.4,153.1 782.8,153.4 785.2,153.7 787.6,153.9 790,153.9 792.4,154.2 
		794.8,154.5 797.2,154.7 799.6,154.7 802,155 804.4,155.3 806.8,155.5 809.2,155.5 811.6,155.8 814,156.1 816.4,156.1 818.8,156.3 
		821.2,156.6 823.6,156.6 826,156.9 828.4,157.1 830.8,157.1 833.2,157.4 835.6,157.7 838,157.7 840.4,157.9 842.8,157.9 
		845.2,158.2 847.6,158.5 850,158.5 852.4,158.7 854.8,158.7 857.2,159 859.6,159 862,159.3 864.4,159.3 866.8,159.5 869.2,159.5 
		871.6,159.8 874,159.8 876.4,159.8 878.8,160.1 881.2,160.1 883.6,160.1 886,160.3 888.4,160.3 890.8,160.3 893.2,160.6 
		895.6,160.6 898,160.6 900.4,160.6 902.8,160.9 905.2,160.9 907.6,160.9 910,160.9 912.4,160.9 914.8,160.9 917.2,161.1 
		919.6,161.1 922,161.1 924.4,161.1 926.8,161.1 929.2,161.1 931.6,161.1 934,161.1 936.4,161.1 938.8,161.1 941.2,161.1 
		943.6,160.9 946,160.9 948.4,160.9 950.8,160.9 	"/>
	<polyline class="st1" points="77,179.5 79.4,179.2 81.8,179.2 84.2,179 86.6,178.7 89,178.7 91.4,178.4 93.8,178.2 96.2,177.9 
		98.6,177.9 101,177.6 103.4,177.4 105.8,177.1 108.2,176.9 110.6,176.6 113,176.3 115.4,175.8 117.8,175.5 120.2,175.2 122.6,175 
		125,174.7 127.4,174.2 129.8,173.9 132.2,173.6 134.6,173.1 137,172.9 139.4,172.6 141.8,172.1 144.2,171.8 146.6,171.2 149,171 
		151.4,170.4 153.8,170.2 156.2,169.6 158.6,169.1 161,168.9 163.4,168.3 165.8,167.8 168.2,167.5 170.6,167 173,166.5 175.4,166.2 
		177.8,165.7 180.2,165.1 182.6,164.6 185,164.3 187.4,163.8 189.8,163.3 192.2,162.7 194.6,162.2 197,161.7 199.4,161.4 
		201.8,160.9 204.2,160.3 206.6,159.8 209,159.3 211.4,158.7 213.8,158.2 216.2,157.7 218.6,157.1 221,156.6 223.4,156.3 
		225.8,155.8 228.2,155.3 230.6,154.7 233,154.2 235.4,153.7 237.8,153.1 240.2,152.6 242.6,152.1 245,151.5 247.4,151 249.8,150.5 
		252.2,149.9 254.6,149.4 257,148.9 259.4,148.3 261.8,147.8 264.2,147.3 266.6,146.7 269,146.2 271.4,145.7 273.8,145.1 
		276.2,144.6 278.6,144.1 281,143.5 283.4,143 285.8,142.5 288.2,141.9 290.6,141.7 293,141.1 295.4,140.6 297.8,140.1 300.2,139.5 
		302.6,139 305,138.5 307.4,137.9 309.8,137.4 312.2,136.9 314.6,136.4 317,135.8 319.4,135.3 321.8,135 324.2,134.5 326.6,133.9 
		329,133.4 331.4,132.9 333.8,132.4 336.2,131.8 338.6,131.6 341,131 343.4,130.5 345.8,129.9 348.2,129.4 350.6,129.1 353,128.6 
		355.5,128.1 357.9,127.6 360.2,127.3 362.6,126.8 365,126.2 367.5,125.9 369.9,125.4 372.2,124.9 374.6,124.6 377,124.1 
		379.5,123.8 381.9,123.3 384.2,122.8 386.7,122.5 389.1,122 391.5,121.7 393.9,121.4 396.3,120.9 398.7,120.6 401.1,120.1 
		403.5,119.8 405.9,119.6 408.3,119 410.7,118.8 413.1,118.5 415.5,118.2 417.9,118 420.3,117.4 422.7,117.2 425.1,116.9 
		427.5,116.6 429.9,116.4 432.3,116.1 434.7,115.8 437.1,115.6 439.5,115.6 441.9,115.3 444.3,115 446.7,114.8 449.1,114.8 
		451.5,114.5 453.9,114.2 456.3,114.2 458.7,114 461.1,114 463.5,113.7 465.9,113.7 468.3,113.4 470.7,113.4 473.1,113.4 
		475.5,113.2 477.9,113.2 480.3,113.2 482.7,113.2 485.1,113.2 487.5,113.2 489.9,113.2 492.3,113.2 494.7,113.2 497.1,113.2 
		499.5,113.2 501.9,113.2 504.3,113.4 506.7,113.4 509.1,113.4 511.5,113.7 513.9,113.7 516.3,114 518.7,114 521.1,114.2 
		523.5,114.2 525.9,114.5 528.3,114.8 530.7,114.8 533.1,115 535.5,115.3 537.9,115.6 540.3,115.8 542.7,115.8 545.1,116.1 
		547.5,116.4 549.9,116.6 552.3,116.9 554.7,117.2 557.1,117.4 559.5,118 561.9,118.2 564.3,118.5 566.7,118.8 569.1,119 
		571.5,119.6 573.9,119.8 576.3,120.1 578.7,120.6 581.1,120.9 583.5,121.2 585.9,121.7 588.3,122 590.7,122.5 593.1,122.8 
		595.5,123.3 597.9,123.6 600.3,124.1 602.7,124.4 605.1,124.9 607.5,125.4 609.9,125.7 612.3,126.2 614.7,126.8 617.1,127 
		619.5,127.6 621.9,128.1 624.3,128.4 626.7,128.9 629.1,129.4 631.5,129.9 633.9,130.2 636.3,130.8 638.7,131.3 641.1,131.8 
		643.5,132.4 645.9,132.6 648.3,133.1 650.7,133.7 653.1,134.2 655.5,134.8 657.9,135.3 660.3,135.6 662.7,136.1 665.1,136.6 
		667.5,137.1 669.9,137.7 672.3,138.2 674.7,138.7 677.1,139.3 679.5,139.8 682,140.1 684.3,140.6 686.8,141.1 689.2,141.7 
		691.5,142.2 694,142.7 696.3,143.3 698.8,143.8 701.2,144.3 703.5,144.9 706,145.4 708.3,145.9 710.8,146.5 713.2,147 715.6,147.5 
		718,147.8 720.4,148.3 722.8,148.9 725.2,149.4 727.6,149.9 730,150.5 732.4,151 734.8,151.5 737.2,152.1 739.6,152.6 742,153.1 
		744.4,153.7 746.8,154.2 749.2,154.7 751.6,155.3 754,155.5 756.4,156.1 758.8,156.6 761.2,157.1 763.6,157.7 766,158.2 
		768.4,158.7 770.8,159.3 773.2,159.8 775.6,160.1 778,160.6 780.4,161.1 782.8,161.7 785.2,162.2 787.6,162.7 790,163 792.4,163.5 
		794.8,164.1 797.2,164.6 799.6,165.1 802,165.4 804.4,165.9 806.8,166.5 809.2,166.7 811.6,167.3 814,167.8 816.4,168.1 
		818.8,168.6 821.2,169.1 823.6,169.4 826,169.9 828.4,170.2 830.8,170.7 833.2,171 835.6,171.5 838,171.8 840.4,172.3 842.8,172.6 
		845.2,173.1 847.6,173.4 850,173.6 852.4,174.2 854.8,174.4 857.2,174.7 859.6,175 862,175.5 864.4,175.8 866.8,176.1 869.2,176.3 
		871.6,176.6 874,176.9 876.4,177.1 878.8,177.4 881.2,177.6 883.6,177.9 886,178.2 888.4,178.2 890.8,178.4 893.2,178.7 895.6,179 
		898,179 900.4,179.2 902.8,179.2 905.2,179.5 907.6,179.5 910,179.8 912.4,179.8 914.8,179.8 917.2,180.1 919.6,180.1 922,180.1 
		924.4,180.1 926.8,180.1 929.2,180.1 931.6,180.1 934,180.1 936.4,180.1 938.8,180.1 941.2,179.8 943.6,179.8 946,179.8 
		948.4,179.8 950.8,179.5 	"/>
	<polyline class="st1" points="77,135 79.4,135 81.8,135 84.2,135.3 86.6,135.3 89,135.3 91.4,135.3 93.8,135.6 96.2,135.6 
		98.6,135.6 101,135.8 103.4,135.8 105.8,135.8 108.2,136.1 110.6,136.1 113,136.4 115.4,136.4 117.8,136.4 120.2,136.6 
		122.6,136.6 125,136.9 127.4,136.9 129.8,137.1 132.2,137.1 134.6,137.4 137,137.4 139.4,137.7 141.8,137.7 144.2,137.9 
		146.6,138.2 149,138.2 151.4,138.5 153.8,138.5 156.2,138.7 158.6,139 161,139 163.4,139.3 165.8,139.3 168.2,139.5 170.6,139.8 
		173,139.8 175.4,140.1 177.8,140.3 180.2,140.3 182.6,140.6 185,140.9 187.4,140.9 189.8,141.1 192.2,141.4 194.6,141.7 197,141.7 
		199.4,141.9 201.8,142.2 204.2,142.2 206.6,142.5 209,142.7 211.4,142.7 213.8,143 216.2,143.3 218.6,143.5 221,143.5 223.4,143.8 
		225.8,144.1 228.2,144.3 230.6,144.3 233,144.6 235.4,144.9 237.8,144.9 240.2,145.1 242.6,145.4 245,145.7 247.4,145.7 
		249.8,145.9 252.2,146.2 254.6,146.5 257,146.5 259.4,146.7 261.8,147 264.2,147 266.6,147.3 269,147.5 271.4,147.8 273.8,147.8 
		276.2,148.1 278.6,148.3 281,148.6 283.4,148.6 285.8,148.9 288.2,149.1 290.6,149.1 293,149.4 295.4,149.7 297.8,149.9 
		300.2,149.9 302.6,150.2 305,150.5 307.4,150.5 309.8,150.7 312.2,151 314.6,151 317,151.3 319.4,151.5 321.8,151.5 324.2,151.8 
		326.6,152.1 329,152.1 331.4,152.3 333.8,152.6 336.2,152.6 338.6,152.9 341,153.1 343.4,153.1 345.8,153.4 348.2,153.7 
		350.6,153.7 353,153.9 355.5,153.9 357.9,154.2 360.2,154.5 362.6,154.5 365,154.7 367.5,154.7 369.9,155 372.2,155.3 374.6,155.3 
		377,155.5 379.5,155.5 381.9,155.8 384.2,155.8 386.7,156.1 389.1,156.1 391.5,156.3 393.9,156.3 396.3,156.6 398.7,156.6 
		401.1,156.9 403.5,156.9 405.9,157.1 408.3,157.1 410.7,157.1 413.1,157.4 415.5,157.4 417.9,157.7 420.3,157.7 422.7,157.7 
		425.1,157.9 427.5,157.9 429.9,157.9 432.3,158.2 434.7,158.2 437.1,158.2 439.5,158.5 441.9,158.5 444.3,158.5 446.7,158.5 
		449.1,158.7 451.5,158.7 453.9,158.7 456.3,158.7 458.7,159 461.1,159 463.5,159 465.9,159 468.3,159 470.7,159 473.1,159 
		475.5,159 477.9,159 480.3,159.3 482.7,159.3 485.1,159.3 487.5,159.3 489.9,159.3 492.3,159.3 494.7,159.3 497.1,159 499.5,159 
		501.9,159 504.3,159 506.7,159 509.1,159 511.5,159 513.9,159 516.3,159 518.7,158.7 521.1,158.7 523.5,158.7 525.9,158.7 
		528.3,158.7 530.7,158.5 533.1,158.5 535.5,158.5 537.9,158.5 540.3,158.2 542.7,158.2 545.1,158.2 547.5,157.9 549.9,157.9 
		552.3,157.9 554.7,157.7 557.1,157.7 559.5,157.4 561.9,157.4 564.3,157.4 566.7,157.1 569.1,157.1 571.5,156.9 573.9,156.9 
		576.3,156.6 578.7,156.6 581.1,156.6 583.5,156.3 585.9,156.3 588.3,156.1 590.7,156.1 593.1,155.8 595.5,155.8 597.9,155.5 
		600.3,155.3 602.7,155.3 605.1,155 607.5,155 609.9,154.7 612.3,154.7 614.7,154.5 617.1,154.2 619.5,154.2 621.9,153.9 
		624.3,153.9 626.7,153.7 629.1,153.4 631.5,153.4 633.9,153.1 636.3,153.1 638.7,152.9 641.1,152.6 643.5,152.6 645.9,152.3 
		648.3,152.1 650.7,152.1 653.1,151.8 655.5,151.5 657.9,151.5 660.3,151.3 662.7,151 665.1,151 667.5,150.7 669.9,150.5 
		672.3,150.5 674.7,150.2 677.1,149.9 679.5,149.9 682,149.7 684.3,149.4 686.8,149.4 689.2,149.1 691.5,148.9 694,148.6 
		696.3,148.6 698.8,148.3 701.2,148.1 703.5,148.1 706,147.8 708.3,147.5 710.8,147.3 713.2,147.3 715.6,147 718,146.7 720.4,146.7 
		722.8,146.5 725.2,146.2 727.6,145.9 730,145.9 732.4,145.7 734.8,145.4 737.2,145.4 739.6,145.1 742,144.9 744.4,144.6 
		746.8,144.6 749.2,144.3 751.6,144.1 754,144.1 756.4,143.8 758.8,143.5 761.2,143.3 763.6,143.3 766,143 768.4,142.7 770.8,142.7 
		773.2,142.5 775.6,142.2 778,141.9 780.4,141.9 782.8,141.7 785.2,141.4 787.6,141.4 790,141.1 792.4,140.9 794.8,140.9 
		797.2,140.6 799.6,140.3 802,140.3 804.4,140.1 806.8,139.8 809.2,139.8 811.6,139.5 814,139.3 816.4,139.3 818.8,139 821.2,139 
		823.6,138.7 826,138.5 828.4,138.5 830.8,138.2 833.2,138.2 835.6,137.9 838,137.9 840.4,137.7 842.8,137.4 845.2,137.4 
		847.6,137.1 850,137.1 852.4,136.9 854.8,136.9 857.2,136.6 859.6,136.6 862,136.6 864.4,136.4 866.8,136.4 869.2,136.1 
		871.6,136.1 874,135.8 876.4,135.8 878.8,135.8 881.2,135.6 883.6,135.6 886,135.6 888.4,135.3 890.8,135.3 893.2,135.3 
		895.6,135.3 898,135 900.4,135 902.8,135 905.2,135 907.6,135 910,135 912.4,134.8 914.8,134.8 917.2,134.8 919.6,134.8 922,134.8 
		924.4,134.8 926.8,134.8 929.2,134.8 931.6,134.8 934,134.8 936.4,134.8 938.8,134.8 941.2,134.8 943.6,134.8 946,134.8 948.4,135 
		950.8,135 	"/>
	<polyline class="st1" points="77,176.9 79.4,176.6 81.8,176.6 84.2,176.3 86.6,176.1 89,176.1 91.4,175.8 93.8,175.5 96.2,175.5 
		98.6,175.2 101,175 103.4,174.7 105.8,174.4 108.2,174.2 110.6,173.9 113,173.6 115.4,173.4 117.8,173.1 120.2,172.9 122.6,172.6 
		125,172.3 127.4,172.1 129.8,171.5 132.2,171.2 134.6,171 137,170.7 139.4,170.2 141.8,169.9 144.2,169.6 146.6,169.1 149,168.9 
		151.4,168.3 153.8,168.1 156.2,167.5 158.6,167.3 161,166.7 163.4,166.5 165.8,165.9 168.2,165.7 170.6,165.1 173,164.9 
		175.4,164.3 177.8,163.8 180.2,163.5 182.6,163 185,162.7 187.4,162.2 189.8,161.7 192.2,161.1 194.6,160.9 197,160.3 199.4,159.8 
		201.8,159.5 204.2,159 206.6,158.5 209,157.9 211.4,157.7 213.8,157.1 216.2,156.6 218.6,156.1 221,155.8 223.4,155.3 225.8,154.7 
		228.2,154.2 230.6,153.7 233,153.4 235.4,152.9 237.8,152.3 240.2,151.8 242.6,151.3 245,151 247.4,150.5 249.8,149.9 252.2,149.4 
		254.6,148.9 257,148.6 259.4,148.1 261.8,147.5 264.2,147 266.6,146.5 269,146.2 271.4,145.7 273.8,145.1 276.2,144.6 278.6,144.1 
		281,143.5 283.4,143.3 285.8,142.7 288.2,142.2 290.6,141.7 293,141.1 295.4,140.9 297.8,140.3 300.2,139.8 302.6,139.3 305,139 
		307.4,138.5 309.8,137.9 312.2,137.4 314.6,137.1 317,136.6 319.4,136.1 321.8,135.6 324.2,135.3 326.6,134.8 329,134.2 
		331.4,133.7 333.8,133.4 336.2,132.9 338.6,132.4 341,132.1 343.4,131.6 345.8,131 348.2,130.8 350.6,130.2 353,129.9 355.5,129.4 
		357.9,128.9 360.2,128.6 362.6,128.1 365,127.8 367.5,127.3 369.9,127 372.2,126.5 374.6,126.2 377,125.7 379.5,125.4 381.9,125.2 
		384.2,124.6 386.7,124.4 389.1,123.8 391.5,123.6 393.9,123.3 396.3,122.8 398.7,122.5 401.1,122.2 403.5,122 405.9,121.7 
		408.3,121.2 410.7,120.9 413.1,120.6 415.5,120.4 417.9,120.1 420.3,119.8 422.7,119.6 425.1,119.3 427.5,119 429.9,118.8 
		432.3,118.5 434.7,118.2 437.1,118.2 439.5,118 441.9,117.7 444.3,117.4 446.7,117.4 449.1,117.2 451.5,117.2 453.9,116.9 
		456.3,116.9 458.7,116.6 461.1,116.6 463.5,116.4 465.9,116.4 468.3,116.1 470.7,116.1 473.1,116.1 475.5,116.1 477.9,116.1 
		480.3,115.8 482.7,115.8 485.1,115.8 487.5,115.8 489.9,115.8 492.3,115.8 494.7,115.8 497.1,116.1 499.5,116.1 501.9,116.1 
		504.3,116.1 506.7,116.4 509.1,116.4 511.5,116.4 513.9,116.6 516.3,116.6 518.7,116.9 521.1,116.9 523.5,117.2 525.9,117.2 
		528.3,117.4 530.7,117.7 533.1,117.7 535.5,118 537.9,118.2 540.3,118.5 542.7,118.8 545.1,118.8 547.5,119 549.9,119.3 
		552.3,119.6 554.7,119.8 557.1,120.1 559.5,120.4 561.9,120.6 564.3,120.9 566.7,121.4 569.1,121.7 571.5,122 573.9,122.2 
		576.3,122.5 578.7,123 581.1,123.3 583.5,123.6 585.9,123.8 588.3,124.4 590.7,124.6 593.1,125.2 595.5,125.4 597.9,125.7 
		600.3,126.2 602.7,126.5 605.1,127 607.5,127.3 609.9,127.8 612.3,128.1 614.7,128.6 617.1,128.9 619.5,129.4 621.9,129.7 
		624.3,130.2 626.7,130.8 629.1,131 631.5,131.6 633.9,131.8 636.3,132.4 638.7,132.9 641.1,133.1 643.5,133.7 645.9,134.2 
		648.3,134.5 650.7,135 653.1,135.6 655.5,136.1 657.9,136.4 660.3,136.9 662.7,137.4 665.1,137.7 667.5,138.2 669.9,138.7 
		672.3,139.3 674.7,139.5 677.1,140.1 679.5,140.6 682,141.1 684.3,141.4 686.8,141.9 689.2,142.5 691.5,143 694,143.5 696.3,143.8 
		698.8,144.3 701.2,144.9 703.5,145.4 706,145.7 708.3,146.2 710.8,146.7 713.2,147.3 715.6,147.8 718,148.1 720.4,148.6 
		722.8,149.1 725.2,149.7 727.6,150.2 730,150.5 732.4,151 734.8,151.5 737.2,152.1 739.6,152.3 742,152.9 744.4,153.4 746.8,153.9 
		749.2,154.5 751.6,154.7 754,155.3 756.4,155.8 758.8,156.3 761.2,156.6 763.6,157.1 766,157.7 768.4,157.9 770.8,158.5 773.2,159 
		775.6,159.5 778,159.8 780.4,160.3 782.8,160.9 785.2,161.1 787.6,161.7 790,162.2 792.4,162.5 794.8,163 797.2,163.5 799.6,163.8 
		802,164.3 804.4,164.6 806.8,165.1 809.2,165.4 811.6,165.9 814,166.5 816.4,166.7 818.8,167.3 821.2,167.5 823.6,167.8 826,168.3 
		828.4,168.6 830.8,169.1 833.2,169.4 835.6,169.6 838,170.2 840.4,170.4 842.8,170.7 845.2,171.2 847.6,171.5 850,171.8 
		852.4,172.1 854.8,172.3 857.2,172.9 859.6,173.1 862,173.4 864.4,173.6 866.8,173.9 869.2,174.2 871.6,174.4 874,174.7 876.4,175 
		878.8,175 881.2,175.2 883.6,175.5 886,175.8 888.4,175.8 890.8,176.1 893.2,176.3 895.6,176.3 898,176.6 900.4,176.6 902.8,176.9 
		905.2,176.9 907.6,177.1 910,177.1 912.4,177.1 914.8,177.1 917.2,177.4 919.6,177.4 922,177.4 924.4,177.4 926.8,177.4 
		929.2,177.4 931.6,177.4 934,177.4 936.4,177.4 938.8,177.4 941.2,177.1 943.6,177.1 946,177.1 948.4,176.9 950.8,176.9 	"/>
	<polyline class="st1" points="77,191.8 79.4,191.5 81.8,191.2 84.2,191 86.6,190.7 89,190.4 91.4,190.2 93.8,189.9 96.2,189.6 
		98.6,189.4 101,189.1 103.4,188.6 105.8,188.3 108.2,187.8 110.6,187.5 113,187 115.4,186.7 117.8,186.2 120.2,185.6 122.6,185.4 
		125,184.8 127.4,184.3 129.8,183.8 132.2,183.2 134.6,182.7 137,182.2 139.4,181.6 141.8,181.1 144.2,180.6 146.6,180.1 149,179.5 
		151.4,179 153.8,178.4 156.2,177.6 158.6,177.1 161,176.6 163.4,176.1 165.8,175.2 168.2,174.7 170.6,173.9 173,173.4 175.4,172.9 
		177.8,172.1 180.2,171.5 182.6,170.7 185,170.2 187.4,169.4 189.8,168.9 192.2,168.1 194.6,167.5 197,166.7 199.4,166.2 
		201.8,165.4 204.2,164.6 206.6,164.1 209,163.3 211.4,162.5 213.8,161.9 216.2,161.1 218.6,160.6 221,159.8 223.4,159 225.8,158.5 
		228.2,157.7 230.6,156.9 233,156.1 235.4,155.5 237.8,154.7 240.2,153.9 242.6,153.4 245,152.6 247.4,151.8 249.8,151.3 
		252.2,150.5 254.6,149.7 257,148.9 259.4,148.3 261.8,147.5 264.2,146.7 266.6,146.2 269,145.4 271.4,144.6 273.8,143.8 
		276.2,143.3 278.6,142.5 281,141.7 283.4,141.1 285.8,140.3 288.2,139.5 290.6,139 293,138.2 295.4,137.4 297.8,136.9 300.2,136.1 
		302.6,135.3 305,134.8 307.4,133.9 309.8,133.1 312.2,132.6 314.6,131.8 317,131 319.4,130.5 321.8,129.7 324.2,129.1 326.6,128.4 
		329,127.6 331.4,127 333.8,126.2 336.2,125.7 338.6,124.9 341,124.4 343.4,123.6 345.8,123 348.2,122.2 350.6,121.7 353,121.2 
		355.5,120.4 357.9,119.8 360.2,119 362.6,118.5 365,118 367.5,117.2 369.9,116.6 372.2,116.1 374.6,115.6 377,114.8 379.5,114.2 
		381.9,113.7 384.2,113.2 386.7,112.6 389.1,112.1 391.5,111.6 393.9,111 396.3,110.5 398.7,110 401.1,109.4 403.5,108.9 
		405.9,108.4 408.3,107.8 410.7,107.6 413.1,107 415.5,106.5 417.9,106.2 420.3,105.7 422.7,105.4 425.1,104.9 427.5,104.6 
		429.9,104.1 432.3,103.8 434.7,103.6 437.1,103 439.5,102.8 441.9,102.5 444.3,102.2 446.7,102 449.1,101.7 451.5,101.4 
		453.9,101.2 456.3,100.9 458.7,100.9 461.1,100.6 463.5,100.4 465.9,100.4 468.3,100.1 470.7,100.1 473.1,99.8 475.5,99.8 
		477.9,99.8 480.3,99.6 482.7,99.6 485.1,99.6 487.5,99.6 489.9,99.6 492.3,99.6 494.7,99.8 497.1,99.8 499.5,99.8 501.9,99.8 
		504.3,100.1 506.7,100.1 509.1,100.4 511.5,100.4 513.9,100.6 516.3,100.9 518.7,100.9 521.1,101.2 523.5,101.4 525.9,101.7 
		528.3,102 530.7,102.2 533.1,102.5 535.5,102.8 537.9,103.3 540.3,103.6 542.7,103.8 545.1,104.1 547.5,104.6 549.9,104.9 
		552.3,105.4 554.7,105.7 557.1,106.2 559.5,106.5 561.9,107 564.3,107.6 566.7,108.1 569.1,108.4 571.5,108.9 573.9,109.4 
		576.3,110 578.7,110.5 581.1,111 583.5,111.6 585.9,112.1 588.3,112.6 590.7,113.2 593.1,113.7 595.5,114.2 597.9,114.8 
		600.3,115.3 602.7,116.1 605.1,116.6 607.5,117.2 609.9,117.7 612.3,118.5 614.7,119 617.1,119.6 619.5,120.4 621.9,120.9 
		624.3,121.4 626.7,122.2 629.1,122.8 631.5,123.6 633.9,124.1 636.3,124.9 638.7,125.4 641.1,126.2 643.5,126.8 645.9,127.6 
		648.3,128.1 650.7,128.9 653.1,129.4 655.5,130.2 657.9,130.8 660.3,131.6 662.7,132.4 665.1,132.9 667.5,133.7 669.9,134.2 
		672.3,135 674.7,135.8 677.1,136.4 679.5,137.1 682,137.7 684.3,138.5 686.8,139.3 689.2,139.8 691.5,140.6 694,141.4 696.3,141.9 
		698.8,142.7 701.2,143.5 703.5,144.1 706,144.9 708.3,145.7 710.8,146.2 713.2,147 715.6,147.8 718,148.3 720.4,149.1 722.8,149.9 
		725.2,150.5 727.6,151.3 730,152.1 732.4,152.6 734.8,153.4 737.2,154.2 739.6,154.7 742,155.5 744.4,156.3 746.8,156.9 
		749.2,157.7 751.6,158.5 754,159 756.4,159.8 758.8,160.3 761.2,161.1 763.6,161.9 766,162.5 768.4,163.3 770.8,163.8 773.2,164.6 
		775.6,165.4 778,165.9 780.4,166.7 782.8,167.3 785.2,168.1 787.6,168.6 790,169.4 792.4,169.9 794.8,170.7 797.2,171.2 
		799.6,172.1 802,172.6 804.4,173.1 806.8,173.9 809.2,174.4 811.6,175 814,175.8 816.4,176.3 818.8,176.9 821.2,177.6 823.6,178.2 
		826,178.7 828.4,179.2 830.8,179.8 833.2,180.3 835.6,180.9 838,181.6 840.4,182.2 842.8,182.7 845.2,183 847.6,183.5 850,184 
		852.4,184.6 854.8,185.1 857.2,185.6 859.6,185.9 862,186.4 864.4,187 866.8,187.2 869.2,187.8 871.6,188 874,188.6 876.4,188.8 
		878.8,189.1 881.2,189.4 883.6,189.9 886,190.2 888.4,190.4 890.8,190.7 893.2,191 895.6,191.2 898,191.5 900.4,191.5 902.8,191.8 
		905.2,192 907.6,192 910,192.3 912.4,192.3 914.8,192.6 917.2,192.6 919.6,192.6 922,192.8 924.4,192.8 926.8,192.8 929.2,192.8 
		931.6,192.8 934,192.8 936.4,192.6 938.8,192.6 941.2,192.6 943.6,192.3 946,192.3 948.4,192 950.8,192 	"/>
	<polyline class="st1" points="77,159.3 79.4,159.3 81.8,159.3 84.2,159.3 86.6,159.3 89,159 91.4,159 93.8,159 96.2,159 
		98.6,158.7 101,158.7 103.4,158.7 105.8,158.5 108.2,158.5 110.6,158.2 113,158.2 115.4,158.2 117.8,157.9 120.2,157.9 
		122.6,157.7 125,157.7 127.4,157.4 129.8,157.4 132.2,157.1 134.6,157.1 137,156.9 139.4,156.9 141.8,156.6 144.2,156.6 
		146.6,156.3 149,156.3 151.4,156.1 153.8,155.8 156.2,155.8 158.6,155.5 161,155.5 163.4,155.3 165.8,155 168.2,155 170.6,154.7 
		173,154.5 175.4,154.5 177.8,154.2 180.2,154.2 182.6,153.9 185,153.7 187.4,153.4 189.8,153.4 192.2,153.1 194.6,152.9 197,152.9 
		199.4,152.6 201.8,152.3 204.2,152.3 206.6,152.1 209,151.8 211.4,151.5 213.8,151.5 216.2,151.3 218.6,151 221,151 223.4,150.7 
		225.8,150.5 228.2,150.2 230.6,150.2 233,149.9 235.4,149.7 237.8,149.4 240.2,149.4 242.6,149.1 245,148.9 247.4,148.6 
		249.8,148.6 252.2,148.3 254.6,148.1 257,147.8 259.4,147.8 261.8,147.5 264.2,147.3 266.6,147 269,147 271.4,146.7 273.8,146.5 
		276.2,146.2 278.6,146.2 281,145.9 283.4,145.7 285.8,145.4 288.2,145.4 290.6,145.1 293,144.9 295.4,144.6 297.8,144.6 
		300.2,144.3 302.6,144.1 305,143.8 307.4,143.8 309.8,143.5 312.2,143.3 314.6,143 317,143 319.4,142.7 321.8,142.5 324.2,142.2 
		326.6,142.2 329,141.9 331.4,141.7 333.8,141.7 336.2,141.4 338.6,141.1 341,140.9 343.4,140.9 345.8,140.6 348.2,140.3 
		350.6,140.3 353,140.1 355.5,139.8 357.9,139.8 360.2,139.5 362.6,139.3 365,139.3 367.5,139 369.9,139 372.2,138.7 374.6,138.5 
		377,138.5 379.5,138.2 381.9,138.2 384.2,137.9 386.7,137.7 389.1,137.7 391.5,137.4 393.9,137.4 396.3,137.1 398.7,137.1 
		401.1,136.9 403.5,136.9 405.9,136.6 408.3,136.6 410.7,136.4 413.1,136.4 415.5,136.1 417.9,136.1 420.3,135.8 422.7,135.8 
		425.1,135.8 427.5,135.6 429.9,135.6 432.3,135.3 434.7,135.3 437.1,135.3 439.5,135 441.9,135 444.3,135 446.7,134.8 449.1,134.8 
		451.5,134.8 453.9,134.8 456.3,134.8 458.7,134.5 461.1,134.5 463.5,134.5 465.9,134.5 468.3,134.5 470.7,134.5 473.1,134.2 
		475.5,134.2 477.9,134.2 480.3,134.2 482.7,134.2 485.1,134.2 487.5,134.2 489.9,134.2 492.3,134.2 494.7,134.2 497.1,134.2 
		499.5,134.2 501.9,134.2 504.3,134.5 506.7,134.5 509.1,134.5 511.5,134.5 513.9,134.5 516.3,134.5 518.7,134.5 521.1,134.8 
		523.5,134.8 525.9,134.8 528.3,134.8 530.7,135 533.1,135 535.5,135 537.9,135.3 540.3,135.3 542.7,135.3 545.1,135.6 547.5,135.6 
		549.9,135.6 552.3,135.8 554.7,135.8 557.1,136.1 559.5,136.1 561.9,136.4 564.3,136.4 566.7,136.4 569.1,136.6 571.5,136.6 
		573.9,136.9 576.3,136.9 578.7,137.1 581.1,137.1 583.5,137.4 585.9,137.7 588.3,137.7 590.7,137.9 593.1,137.9 595.5,138.2 
		597.9,138.2 600.3,138.5 602.7,138.7 605.1,138.7 607.5,139 609.9,139 612.3,139.3 614.7,139.5 617.1,139.5 619.5,139.8 
		621.9,140.1 624.3,140.1 626.7,140.3 629.1,140.6 631.5,140.6 633.9,140.9 636.3,141.1 638.7,141.1 641.1,141.4 643.5,141.7 
		645.9,141.7 648.3,141.9 650.7,142.2 653.1,142.5 655.5,142.5 657.9,142.7 660.3,143 662.7,143 665.1,143.3 667.5,143.5 
		669.9,143.8 672.3,143.8 674.7,144.1 677.1,144.3 679.5,144.6 682,144.6 684.3,144.9 686.8,145.1 689.2,145.4 691.5,145.4 
		694,145.7 696.3,145.9 698.8,145.9 701.2,146.2 703.5,146.5 706,146.7 708.3,146.7 710.8,147 713.2,147.3 715.6,147.5 718,147.5 
		720.4,147.8 722.8,148.1 725.2,148.3 727.6,148.3 730,148.6 732.4,148.9 734.8,149.1 737.2,149.1 739.6,149.4 742,149.7 
		744.4,149.9 746.8,149.9 749.2,150.2 751.6,150.5 754,150.7 756.4,150.7 758.8,151 761.2,151.3 763.6,151.3 766,151.5 768.4,151.8 
		770.8,152.1 773.2,152.1 775.6,152.3 778,152.6 780.4,152.6 782.8,152.9 785.2,153.1 787.6,153.1 790,153.4 792.4,153.7 
		794.8,153.7 797.2,153.9 799.6,154.2 802,154.2 804.4,154.5 806.8,154.7 809.2,154.7 811.6,155 814,155.3 816.4,155.3 818.8,155.5 
		821.2,155.5 823.6,155.8 826,156.1 828.4,156.1 830.8,156.3 833.2,156.3 835.6,156.6 838,156.6 840.4,156.9 842.8,156.9 
		845.2,157.1 847.6,157.1 850,157.4 852.4,157.4 854.8,157.7 857.2,157.7 859.6,157.9 862,157.9 864.4,158.2 866.8,158.2 
		869.2,158.2 871.6,158.5 874,158.5 876.4,158.7 878.8,158.7 881.2,158.7 883.6,159 886,159 888.4,159 890.8,159 893.2,159.3 
		895.6,159.3 898,159.3 900.4,159.3 902.8,159.3 905.2,159.5 907.6,159.5 910,159.5 912.4,159.5 914.8,159.5 917.2,159.5 
		919.6,159.5 922,159.5 924.4,159.5 926.8,159.5 929.2,159.5 931.6,159.5 934,159.5 936.4,159.5 938.8,159.5 941.2,159.5 
		943.6,159.5 946,159.5 948.4,159.5 950.8,159.5 	"/>
	<polyline class="st1" points="77,183.5 79.4,183.2 81.8,183.2 84.2,183 86.6,182.7 89,182.4 91.4,182.4 93.8,182.2 96.2,181.9 
		98.6,181.6 101,181.4 103.4,181.1 105.8,180.9 108.2,180.6 110.6,180.1 113,179.8 115.4,179.5 117.8,179.2 120.2,178.7 
		122.6,178.4 125,177.9 127.4,177.6 129.8,177.1 132.2,176.9 134.6,176.3 137,176.1 139.4,175.5 141.8,175.2 144.2,174.7 
		146.6,174.2 149,173.6 151.4,173.4 153.8,172.9 156.2,172.3 158.6,171.8 161,171.2 163.4,171 165.8,170.4 168.2,169.9 170.6,169.4 
		173,168.9 175.4,168.3 177.8,167.8 180.2,167.3 182.6,166.7 185,166.2 187.4,165.7 189.8,165.1 192.2,164.6 194.6,164.1 197,163.5 
		199.4,163 201.8,162.2 204.2,161.7 206.6,161.1 209,160.6 211.4,160.1 213.8,159.5 216.2,159 218.6,158.2 221,157.7 223.4,157.1 
		225.8,156.6 228.2,156.1 230.6,155.3 233,154.7 235.4,154.2 237.8,153.7 240.2,153.1 242.6,152.3 245,151.8 247.4,151.3 
		249.8,150.7 252.2,150.2 254.6,149.4 257,148.9 259.4,148.3 261.8,147.8 264.2,147.3 266.6,146.5 269,145.9 271.4,145.4 
		273.8,144.9 276.2,144.1 278.6,143.5 281,143 283.4,142.5 285.8,141.9 288.2,141.1 290.6,140.6 293,140.1 295.4,139.5 297.8,139 
		300.2,138.2 302.6,137.7 305,137.1 307.4,136.6 309.8,136.1 312.2,135.6 314.6,134.8 317,134.2 319.4,133.7 321.8,133.1 
		324.2,132.6 326.6,132.1 329,131.6 331.4,131 333.8,130.5 336.2,129.9 338.6,129.1 341,128.6 343.4,128.1 345.8,127.6 348.2,127 
		350.6,126.5 353,125.9 355.5,125.4 357.9,124.9 360.2,124.6 362.6,124.1 365,123.6 367.5,123 369.9,122.5 372.2,122 374.6,121.4 
		377,121.2 379.5,120.6 381.9,120.1 384.2,119.6 386.7,119.3 389.1,118.8 391.5,118.2 393.9,118 396.3,117.4 398.7,117.2 
		401.1,116.6 403.5,116.1 405.9,115.8 408.3,115.6 410.7,115 413.1,114.8 415.5,114.2 417.9,114 420.3,113.7 422.7,113.4 
		425.1,112.9 427.5,112.6 429.9,112.4 432.3,112.1 434.7,111.8 437.1,111.6 439.5,111.3 441.9,111 444.3,110.8 446.7,110.5 
		449.1,110.2 451.5,110.2 453.9,110 456.3,109.7 458.7,109.7 461.1,109.4 463.5,109.4 465.9,109.2 468.3,109.2 470.7,108.9 
		473.1,108.9 475.5,108.9 477.9,108.9 480.3,108.6 482.7,108.6 485.1,108.6 487.5,108.6 489.9,108.6 492.3,108.6 494.7,108.6 
		497.1,108.6 499.5,108.9 501.9,108.9 504.3,108.9 506.7,109.2 509.1,109.2 511.5,109.2 513.9,109.4 516.3,109.7 518.7,109.7 
		521.1,110 523.5,110 525.9,110.2 528.3,110.5 530.7,110.8 533.1,111 535.5,111.3 537.9,111.3 540.3,111.6 542.7,111.8 545.1,112.4 
		547.5,112.6 549.9,112.9 552.3,113.2 554.7,113.4 557.1,113.7 559.5,114.2 561.9,114.5 564.3,114.8 566.7,115.3 569.1,115.6 
		571.5,116.1 573.9,116.4 576.3,116.9 578.7,117.2 581.1,117.7 583.5,118 585.9,118.5 588.3,119 590.7,119.3 593.1,119.8 
		595.5,120.4 597.9,120.6 600.3,121.2 602.7,121.7 605.1,122.2 607.5,122.8 609.9,123 612.3,123.6 614.7,124.1 617.1,124.6 
		619.5,125.2 621.9,125.7 624.3,126.2 626.7,126.8 629.1,127.3 631.5,127.8 633.9,128.4 636.3,128.9 638.7,129.4 641.1,129.9 
		643.5,130.5 645.9,131 648.3,131.6 650.7,132.1 653.1,132.6 655.5,133.1 657.9,133.7 660.3,134.2 662.7,134.8 665.1,135.6 
		667.5,136.1 669.9,136.6 672.3,137.1 674.7,137.7 677.1,138.2 679.5,138.7 682,139.5 684.3,140.1 686.8,140.6 689.2,141.1 
		691.5,141.7 694,142.2 696.3,143 698.8,143.5 701.2,144.1 703.5,144.6 706,145.1 708.3,145.7 710.8,146.5 713.2,147 715.6,147.5 
		718,148.1 720.4,148.6 722.8,149.4 725.2,149.9 727.6,150.5 730,151 732.4,151.5 734.8,152.1 737.2,152.9 739.6,153.4 742,153.9 
		744.4,154.5 746.8,155 749.2,155.5 751.6,156.3 754,156.9 756.4,157.4 758.8,157.9 761.2,158.5 763.6,159 766,159.5 768.4,160.3 
		770.8,160.9 773.2,161.4 775.6,161.9 778,162.5 780.4,163 782.8,163.5 785.2,164.1 787.6,164.6 790,165.1 792.4,165.7 794.8,166.2 
		797.2,166.7 799.6,167.3 802,167.8 804.4,168.3 806.8,168.9 809.2,169.4 811.6,169.9 814,170.4 816.4,171 818.8,171.5 821.2,171.8 
		823.6,172.3 826,172.9 828.4,173.4 830.8,173.6 833.2,174.2 835.6,174.7 838,175 840.4,175.5 842.8,176.1 845.2,176.3 847.6,176.9 
		850,177.1 852.4,177.6 854.8,177.9 857.2,178.4 859.6,178.7 862,179 864.4,179.5 866.8,179.8 869.2,180.1 871.6,180.3 874,180.9 
		876.4,181.1 878.8,181.4 881.2,181.6 883.6,181.9 886,182.2 888.4,182.2 890.8,182.4 893.2,182.7 895.6,183 898,183.2 900.4,183.2 
		902.8,183.5 905.2,183.5 907.6,183.8 910,183.8 912.4,184 914.8,184 917.2,184 919.6,184 922,184.3 924.4,184.3 926.8,184.3 
		929.2,184.3 931.6,184.3 934,184.3 936.4,184.3 938.8,184 941.2,184 943.6,184 946,183.8 948.4,183.8 950.8,183.8 	"/>
	<polyline class="st1" points="77,176.6 79.4,176.6 81.8,176.3 84.2,176.3 86.6,176.1 89,176.1 91.4,175.8 93.8,175.5 96.2,175.5 
		98.6,175.2 101,175 103.4,174.7 105.8,174.4 108.2,174.2 110.6,173.9 113,173.9 115.4,173.4 117.8,173.1 120.2,172.9 122.6,172.6 
		125,172.3 127.4,172.1 129.8,171.8 132.2,171.5 134.6,171 137,170.7 139.4,170.4 141.8,169.9 144.2,169.6 146.6,169.4 149,168.9 
		151.4,168.6 153.8,168.1 156.2,167.8 158.6,167.5 161,167 163.4,166.7 165.8,166.2 168.2,165.7 170.6,165.4 173,164.9 175.4,164.6 
		177.8,164.1 180.2,163.8 182.6,163.3 185,162.7 187.4,162.5 189.8,161.9 192.2,161.4 194.6,161.1 197,160.6 199.4,160.1 
		201.8,159.8 204.2,159.3 206.6,158.7 209,158.2 211.4,157.9 213.8,157.4 216.2,156.9 218.6,156.3 221,156.1 223.4,155.5 225.8,155 
		228.2,154.5 230.6,153.9 233,153.7 235.4,153.1 237.8,152.6 240.2,152.1 242.6,151.5 245,151.3 247.4,150.7 249.8,150.2 
		252.2,149.7 254.6,149.1 257,148.9 259.4,148.3 261.8,147.8 264.2,147.3 266.6,146.7 269,146.5 271.4,145.9 273.8,145.4 
		276.2,144.9 278.6,144.3 281,144.1 283.4,143.5 285.8,143 288.2,142.5 290.6,141.9 293,141.7 295.4,141.1 297.8,140.6 300.2,140.1 
		302.6,139.5 305,139.3 307.4,138.7 309.8,138.2 312.2,137.7 314.6,137.4 317,136.9 319.4,136.4 321.8,135.8 324.2,135.6 326.6,135 
		329,134.5 331.4,134.2 333.8,133.7 336.2,133.1 338.6,132.9 341,132.4 343.4,131.8 345.8,131.6 348.2,131 350.6,130.5 353,130.2 
		355.5,129.7 357.9,129.4 360.2,128.9 362.6,128.4 365,128.1 367.5,127.6 369.9,127.3 372.2,126.8 374.6,126.5 377,125.9 
		379.5,125.7 381.9,125.4 384.2,124.9 386.7,124.6 389.1,124.1 391.5,123.8 393.9,123.6 396.3,123.3 398.7,122.8 401.1,122.5 
		403.5,122.2 405.9,122 408.3,121.4 410.7,121.2 413.1,120.9 415.5,120.6 417.9,120.4 420.3,120.1 422.7,119.8 425.1,119.6 
		427.5,119.3 429.9,119 432.3,118.8 434.7,118.5 437.1,118.5 439.5,118.2 441.9,118 444.3,117.7 446.7,117.7 449.1,117.4 
		451.5,117.2 453.9,117.2 456.3,116.9 458.7,116.9 461.1,116.6 463.5,116.6 465.9,116.4 468.3,116.4 470.7,116.4 473.1,116.1 
		475.5,116.1 477.9,116.1 480.3,116.1 482.7,116.1 485.1,116.1 487.5,116.1 489.9,116.1 492.3,116.1 494.7,116.1 497.1,116.1 
		499.5,116.1 501.9,116.1 504.3,116.1 506.7,116.4 509.1,116.4 511.5,116.4 513.9,116.6 516.3,116.6 518.7,116.9 521.1,116.9 
		523.5,117.2 525.9,117.2 528.3,117.4 530.7,117.7 533.1,117.7 535.5,118 537.9,118.2 540.3,118.5 542.7,118.5 545.1,118.8 
		547.5,119 549.9,119.3 552.3,119.6 554.7,119.8 557.1,120.1 559.5,120.4 561.9,120.6 564.3,120.9 566.7,121.2 569.1,121.4 
		571.5,122 573.9,122.2 576.3,122.5 578.7,122.8 581.1,123 583.5,123.6 585.9,123.8 588.3,124.1 590.7,124.6 593.1,124.9 
		595.5,125.2 597.9,125.7 600.3,125.9 602.7,126.5 605.1,126.8 607.5,127.3 609.9,127.6 612.3,128.1 614.7,128.4 617.1,128.9 
		619.5,129.1 621.9,129.7 624.3,129.9 626.7,130.5 629.1,130.8 631.5,131.3 633.9,131.8 636.3,132.1 638.7,132.6 641.1,133.1 
		643.5,133.4 645.9,133.9 648.3,134.5 650.7,134.8 653.1,135.3 655.5,135.8 657.9,136.1 660.3,136.6 662.7,137.1 665.1,137.7 
		667.5,137.9 669.9,138.5 672.3,139 674.7,139.3 677.1,139.8 679.5,140.3 682,140.9 684.3,141.1 686.8,141.7 689.2,142.2 
		691.5,142.7 694,143.3 696.3,143.5 698.8,144.1 701.2,144.6 703.5,145.1 706,145.4 708.3,145.9 710.8,146.5 713.2,147 715.6,147.5 
		718,147.8 720.4,148.3 722.8,148.9 725.2,149.4 727.6,149.7 730,150.2 732.4,150.7 734.8,151.3 737.2,151.8 739.6,152.1 742,152.6 
		744.4,153.1 746.8,153.7 749.2,153.9 751.6,154.5 754,155 756.4,155.5 758.8,155.8 761.2,156.3 763.6,156.9 766,157.4 768.4,157.7 
		770.8,158.2 773.2,158.7 775.6,159 778,159.5 780.4,160.1 782.8,160.6 785.2,160.9 787.6,161.4 790,161.9 792.4,162.2 794.8,162.7 
		797.2,163 799.6,163.5 802,164.1 804.4,164.3 806.8,164.9 809.2,165.1 811.6,165.7 814,165.9 816.4,166.5 818.8,166.7 821.2,167.3 
		823.6,167.5 826,168.1 828.4,168.3 830.8,168.9 833.2,169.1 835.6,169.4 838,169.9 840.4,170.2 842.8,170.4 845.2,171 847.6,171.2 
		850,171.5 852.4,171.8 854.8,172.1 857.2,172.6 859.6,172.9 862,173.1 864.4,173.4 866.8,173.6 869.2,173.9 871.6,174.2 874,174.4 
		876.4,174.7 878.8,175 881.2,175 883.6,175.2 886,175.5 888.4,175.8 890.8,175.8 893.2,176.1 895.6,176.3 898,176.3 900.4,176.6 
		902.8,176.6 905.2,176.9 907.6,176.9 910,176.9 912.4,177.1 914.8,177.1 917.2,177.1 919.6,177.1 922,177.4 924.4,177.4 
		926.8,177.4 929.2,177.4 931.6,177.4 934,177.4 936.4,177.1 938.8,177.1 941.2,177.1 943.6,177.1 946,177.1 948.4,176.9 
		950.8,176.9 	"/>
	<polyline class="st1" points="77,273 79.4,272.2 81.8,271.2 84.2,270.1 86.6,269 89,268 91.4,266.9 93.8,265.6 96.2,264.2 
		98.6,263.2 101,261.6 103.4,260.2 105.8,258.9 108.2,257.6 110.6,256 113,254.4 115.4,253.1 117.8,251.5 120.2,249.9 122.6,248.3 
		125,246.7 127.4,245.1 129.8,243.5 132.2,241.6 134.6,240 137,238.4 139.4,236.5 141.8,234.9 144.2,233.1 146.6,231.5 149,229.6 
		151.4,228 153.8,226.1 156.2,224.6 158.6,222.7 161,220.8 163.4,219.2 165.8,217.4 168.2,215.8 170.6,213.9 173,212 175.4,210.4 
		177.8,208.6 180.2,206.7 182.6,205.1 185,203.2 187.4,201.4 189.8,199.5 192.2,197.9 194.6,196 197,194.2 199.4,192.6 201.8,190.7 
		204.2,188.8 206.6,187.2 209,185.4 211.4,183.5 213.8,181.9 216.2,180.1 218.6,178.2 221,176.6 223.4,174.7 225.8,173.1 
		228.2,171.2 230.6,169.4 233,167.8 235.4,165.9 237.8,164.1 240.2,162.5 242.6,160.6 245,159 247.4,157.1 249.8,155.3 252.2,153.7 
		254.6,151.8 257,149.9 259.4,148.3 261.8,146.5 264.2,144.9 266.6,143 269,141.1 271.4,139.5 273.8,137.7 276.2,136.1 278.6,134.2 
		281,132.4 283.4,130.8 285.8,128.9 288.2,127 290.6,125.4 293,123.6 295.4,121.7 297.8,120.1 300.2,118.2 302.6,116.6 305,114.8 
		307.4,112.9 309.8,111.3 312.2,109.4 314.6,107.6 317,105.7 319.4,104.1 321.8,102.2 324.2,100.4 326.6,98.8 329,96.9 331.4,95 
		333.8,93.2 336.2,91.6 338.6,89.7 341,87.8 343.4,86 345.8,84.4 348.2,82.5 350.6,80.7 353,78.8 355.5,76.9 357.9,75.3 360.2,73.5 
		362.6,71.6 365,69.7 367.5,67.9 369.9,66.3 372.2,64.4 374.6,62.5 377,60.7 379.5,58.8 381.9,56.9 384.2,55.3 386.7,53.5 	"/>
	<polyline class="st1" points="593.1,57.7 595.5,59.6 597.9,61.5 600.3,63.3 602.7,64.9 605.1,66.8 607.5,68.7 609.9,70.5 
		612.3,72.1 614.7,74 617.1,75.9 619.5,77.7 621.9,79.3 624.3,81.2 626.7,83.1 629.1,84.7 631.5,86.5 633.9,88.4 636.3,90 
		638.7,91.8 641.1,93.7 643.5,95.3 645.9,97.2 648.3,99 650.7,100.6 653.1,102.5 655.5,104.4 657.9,106 660.3,107.8 662.7,109.4 
		665.1,111.3 667.5,113.2 669.9,114.8 672.3,116.6 674.7,118.2 677.1,120.1 679.5,121.7 682,123.6 684.3,125.2 686.8,127 
		689.2,128.6 691.5,130.5 694,132.1 696.3,133.9 698.8,135.8 701.2,137.4 703.5,139.3 706,140.9 708.3,142.7 710.8,144.3 
		713.2,146.2 715.6,147.8 718,149.7 720.4,151.3 722.8,153.1 725.2,154.7 727.6,156.6 730,158.2 732.4,160.1 734.8,161.7 
		737.2,163.5 739.6,165.1 742,167 744.4,168.6 746.8,170.4 749.2,172.1 751.6,173.9 754,175.5 756.4,177.4 758.8,179.2 761.2,180.9 
		763.6,182.7 766,184.3 768.4,186.2 770.8,187.8 773.2,189.6 775.6,191.5 778,193.1 780.4,195 782.8,196.6 785.2,198.4 787.6,200.3 
		790,201.9 792.4,203.8 794.8,205.4 797.2,207.2 799.6,209.1 802,210.7 804.4,212.6 806.8,214.1 809.2,216 811.6,217.6 814,219.5 
		816.4,221.4 818.8,222.9 821.2,224.8 823.6,226.4 826,228.3 828.4,229.9 830.8,231.5 833.2,233.3 835.6,234.9 838,236.8 
		840.4,238.4 842.8,240 845.2,241.6 847.6,243.5 850,245.1 852.4,246.7 854.8,248.3 857.2,249.9 859.6,251.5 862,253.1 864.4,254.4 
		866.8,256 869.2,257.3 871.6,258.9 874,260.2 876.4,261.6 878.8,262.9 881.2,264.2 883.6,265.6 886,266.6 888.4,268 890.8,269 
		893.2,270.1 895.6,271.2 898,272 900.4,273 902.8,273.8 905.2,274.6 907.6,275.2 910,276 912.4,276.5 914.8,276.8 917.2,277.3 
		919.6,277.6 922,277.8 924.4,277.8 926.8,278.1 929.2,278.1 931.6,277.8 934,277.6 936.4,277.3 938.8,277 941.2,276.5 943.6,276 
		946,275.4 948.4,274.9 950.8,274.1 	"/>
	<polyline class="st1" points="77,163.8 79.4,163.8 81.8,163.8 84.2,163.5 86.6,163.5 89,163.5 91.4,163.3 93.8,163.3 96.2,163 
		98.6,163 101,163 103.4,162.7 105.8,162.7 108.2,162.5 110.6,162.5 113,162.2 115.4,161.9 117.8,161.9 120.2,161.7 122.6,161.7 
		125,161.4 127.4,161.1 129.8,161.1 132.2,160.9 134.6,160.6 137,160.6 139.4,160.3 141.8,160.1 144.2,159.8 146.6,159.8 149,159.5 
		151.4,159.3 153.8,159 156.2,158.7 158.6,158.7 161,158.5 163.4,158.2 165.8,157.9 168.2,157.7 170.6,157.4 173,157.1 175.4,157.1 
		177.8,156.9 180.2,156.6 182.6,156.3 185,156.1 187.4,155.8 189.8,155.5 192.2,155.3 194.6,155 197,154.7 199.4,154.5 201.8,154.2 
		204.2,153.9 206.6,153.7 209,153.4 211.4,153.1 213.8,152.9 216.2,152.6 218.6,152.3 221,152.1 223.4,151.8 225.8,151.5 
		228.2,151.3 230.6,151 233,150.7 235.4,150.5 237.8,150.2 240.2,149.9 242.6,149.7 245,149.4 247.4,149.1 249.8,148.9 252.2,148.6 
		254.6,148.3 257,148.1 259.4,147.8 261.8,147.5 264.2,147.3 266.6,147 269,146.7 271.4,146.5 273.8,146.2 276.2,145.9 278.6,145.7 
		281,145.4 283.4,145.1 285.8,144.9 288.2,144.6 290.6,144.3 293,144.1 295.4,143.8 297.8,143.5 300.2,143.3 302.6,143 305,142.7 
		307.4,142.5 309.8,142.2 312.2,141.9 314.6,141.7 317,141.4 319.4,141.1 321.8,140.9 324.2,140.6 326.6,140.3 329,140.1 
		331.4,139.8 333.8,139.5 336.2,139.3 338.6,139 341,138.7 343.4,138.5 345.8,138.2 348.2,137.9 350.6,137.7 353,137.4 355.5,137.1 
		357.9,137.1 360.2,136.9 362.6,136.6 365,136.4 367.5,136.1 369.9,135.8 372.2,135.6 374.6,135.6 377,135.3 379.5,135 381.9,134.8 
		384.2,134.5 386.7,134.2 389.1,134.2 391.5,133.9 393.9,133.7 396.3,133.7 398.7,133.4 401.1,133.1 403.5,132.9 405.9,132.9 
		408.3,132.6 410.7,132.4 413.1,132.4 415.5,132.1 417.9,132.1 420.3,131.8 422.7,131.6 425.1,131.6 427.5,131.3 429.9,131.3 
		432.3,131 434.7,131 437.1,130.8 439.5,130.8 441.9,130.8 444.3,130.5 446.7,130.5 449.1,130.2 451.5,130.2 453.9,130.2 
		456.3,130.2 458.7,129.9 461.1,129.9 463.5,129.9 465.9,129.9 468.3,129.7 470.7,129.7 473.1,129.7 475.5,129.7 477.9,129.7 
		480.3,129.7 482.7,129.7 485.1,129.7 487.5,129.7 489.9,129.7 492.3,129.7 494.7,129.7 497.1,129.7 499.5,129.7 501.9,129.7 
		504.3,129.7 506.7,129.7 509.1,129.9 511.5,129.9 513.9,129.9 516.3,129.9 518.7,129.9 521.1,130.2 523.5,130.2 525.9,130.2 
		528.3,130.5 530.7,130.5 533.1,130.8 535.5,130.8 537.9,130.8 540.3,131 542.7,131 545.1,131.3 547.5,131.3 549.9,131.6 
		552.3,131.6 554.7,131.8 557.1,131.8 559.5,132.1 561.9,132.4 564.3,132.4 566.7,132.6 569.1,132.9 571.5,132.9 573.9,133.1 
		576.3,133.4 578.7,133.4 581.1,133.7 583.5,133.9 585.9,133.9 588.3,134.2 590.7,134.5 593.1,134.8 595.5,135 597.9,135 
		600.3,135.3 602.7,135.6 605.1,135.8 607.5,136.1 609.9,136.1 612.3,136.4 614.7,136.6 617.1,136.9 619.5,137.1 621.9,137.4 
		624.3,137.7 626.7,137.9 629.1,138.2 631.5,138.2 633.9,138.5 636.3,138.7 638.7,139 641.1,139.3 643.5,139.5 645.9,139.8 
		648.3,140.1 650.7,140.3 653.1,140.6 655.5,140.9 657.9,141.1 660.3,141.4 662.7,141.7 665.1,141.9 667.5,142.2 669.9,142.5 
		672.3,142.7 674.7,143 677.1,143.3 679.5,143.5 682,143.8 684.3,144.1 686.8,144.3 689.2,144.6 691.5,144.9 694,145.1 696.3,145.4 
		698.8,145.7 701.2,145.9 703.5,146.2 706,146.5 708.3,146.7 710.8,147 713.2,147.3 715.6,147.5 718,147.8 720.4,148.1 722.8,148.3 
		725.2,148.6 727.6,148.9 730,149.1 732.4,149.4 734.8,149.7 737.2,149.9 739.6,150.2 742,150.5 744.4,150.7 746.8,151 749.2,151.3 
		751.6,151.5 754,151.8 756.4,152.1 758.8,152.3 761.2,152.6 763.6,152.9 766,153.1 768.4,153.4 770.8,153.7 773.2,153.9 
		775.6,154.2 778,154.5 780.4,154.7 782.8,155 785.2,155.3 787.6,155.5 790,155.5 792.4,155.8 794.8,156.1 797.2,156.3 799.6,156.6 
		802,156.9 804.4,157.1 806.8,157.4 809.2,157.7 811.6,157.7 814,157.9 816.4,158.2 818.8,158.5 821.2,158.7 823.6,159 826,159 
		828.4,159.3 830.8,159.5 833.2,159.8 835.6,160.1 838,160.1 840.4,160.3 842.8,160.6 845.2,160.6 847.6,160.9 850,161.1 
		852.4,161.1 854.8,161.4 857.2,161.7 859.6,161.7 862,161.9 864.4,162.2 866.8,162.2 869.2,162.5 871.6,162.5 874,162.7 
		876.4,162.7 878.8,163 881.2,163 883.6,163.3 886,163.3 888.4,163.3 890.8,163.5 893.2,163.5 895.6,163.5 898,163.8 900.4,163.8 
		902.8,163.8 905.2,163.8 907.6,164.1 910,164.1 912.4,164.1 914.8,164.1 917.2,164.1 919.6,164.1 922,164.1 924.4,164.1 
		926.8,164.3 929.2,164.3 931.6,164.1 934,164.1 936.4,164.1 938.8,164.1 941.2,164.1 943.6,164.1 946,164.1 948.4,164.1 
		950.8,163.8 	"/>
	<polyline class="st2" points="77,145.9 79.4,145.9 81.8,145.9 84.2,145.9 86.6,145.9 89,145.9 91.4,145.9 93.8,145.9 96.2,145.9 
		98.6,145.9 101,145.9 103.4,145.9 105.8,145.9 108.2,145.9 110.6,145.9 113,145.9 115.4,145.9 117.8,145.9 120.2,145.9 
		122.6,145.9 125,146.2 127.4,146.2 129.8,146.2 132.2,146.2 134.6,146.2 137,146.2 139.4,146.2 141.8,146.2 144.2,146.2 
		146.6,146.2 149,146.2 151.4,146.2 153.8,146.2 156.2,146.2 158.6,146.5 161,146.5 163.4,146.5 165.8,146.5 168.2,146.5 
		170.6,146.5 173,146.5 175.4,146.5 177.8,146.5 180.2,146.5 182.6,146.5 185,146.5 187.4,146.5 189.8,146.7 192.2,146.7 
		194.6,146.7 197,146.7 199.4,146.7 201.8,146.7 204.2,146.7 206.6,146.7 209,146.7 211.4,146.7 213.8,146.7 216.2,146.7 
		218.6,146.7 221,147 223.4,147 225.8,147 228.2,147 230.6,147 233,147 235.4,147 237.8,147 240.2,147 242.6,147 245,147 247.4,147 
		249.8,147 252.2,147.3 254.6,147.3 257,147.3 259.4,147.3 261.8,147.3 264.2,147.3 266.6,147.3 269,147.3 271.4,147.3 273.8,147.3 
		276.2,147.3 278.6,147.3 281,147.3 283.4,147.3 285.8,147.5 288.2,147.5 290.6,147.5 293,147.5 295.4,147.5 297.8,147.5 
		300.2,147.5 302.6,147.5 305,147.5 307.4,147.5 309.8,147.5 312.2,147.5 314.6,147.5 317,147.5 319.4,147.5 321.8,147.5 
		324.2,147.8 326.6,147.8 329,147.8 331.4,147.8 333.8,147.8 336.2,147.8 338.6,147.8 341,147.8 343.4,147.8 345.8,147.8 
		348.2,147.8 350.6,147.8 353,147.8 355.5,147.8 357.9,147.8 360.2,147.8 362.6,147.8 365,147.8 367.5,147.8 369.9,147.8 
		372.2,148.1 374.6,148.1 377,148.1 379.5,148.1 381.9,148.1 384.2,148.1 386.7,148.1 389.1,148.1 391.5,148.1 393.9,148.1 
		396.3,148.1 398.7,148.1 401.1,148.1 403.5,148.1 405.9,148.1 408.3,148.1 410.7,148.1 413.1,148.1 415.5,148.1 417.9,148.1 
		420.3,148.1 422.7,148.1 425.1,148.1 427.5,148.1 429.9,148.1 432.3,148.1 434.7,148.1 437.1,148.1 439.5,148.1 441.9,148.1 
		444.3,148.1 446.7,148.1 449.1,148.1 451.5,148.1 453.9,148.1 456.3,148.1 458.7,148.1 461.1,148.1 463.5,148.1 465.9,148.1 
		468.3,148.3 470.7,148.3 473.1,148.3 475.5,148.3 477.9,148.3 480.3,148.3 482.7,148.3 485.1,148.3 487.5,148.3 489.9,148.3 
		492.3,148.3 494.7,148.3 497.1,148.3 499.5,148.3 501.9,148.3 504.3,148.3 506.7,148.3 509.1,148.3 511.5,148.3 513.9,148.1 
		516.3,148.1 518.7,148.1 521.1,148.1 523.5,148.1 525.9,148.1 528.3,148.1 530.7,148.1 533.1,148.1 535.5,148.1 537.9,148.1 
		540.3,148.1 542.7,148.1 545.1,148.1 547.5,148.1 549.9,148.1 552.3,148.1 554.7,148.1 557.1,148.1 559.5,148.1 561.9,148.1 
		564.3,148.1 566.7,148.1 569.1,148.1 571.5,148.1 573.9,148.1 576.3,148.1 578.7,148.1 581.1,148.1 583.5,148.1 585.9,148.1 
		588.3,148.1 590.7,148.1 593.1,148.1 595.5,148.1 597.9,148.1 600.3,148.1 602.7,148.1 605.1,148.1 607.5,147.8 609.9,147.8 
		612.3,147.8 614.7,147.8 617.1,147.8 619.5,147.8 621.9,147.8 624.3,147.8 626.7,147.8 629.1,147.8 631.5,147.8 633.9,147.8 
		636.3,147.8 638.7,147.8 641.1,147.8 643.5,147.8 645.9,147.8 648.3,147.8 650.7,147.8 653.1,147.8 655.5,147.8 657.9,147.5 
		660.3,147.5 662.7,147.5 665.1,147.5 667.5,147.5 669.9,147.5 672.3,147.5 674.7,147.5 677.1,147.5 679.5,147.5 682,147.5 
		684.3,147.5 686.8,147.5 689.2,147.5 691.5,147.5 694,147.5 696.3,147.3 698.8,147.3 701.2,147.3 703.5,147.3 706,147.3 
		708.3,147.3 710.8,147.3 713.2,147.3 715.6,147.3 718,147.3 720.4,147.3 722.8,147.3 725.2,147.3 727.6,147.3 730,147 732.4,147 
		734.8,147 737.2,147 739.6,147 742,147 744.4,147 746.8,147 749.2,147 751.6,147 754,147 756.4,147 758.8,147 761.2,146.7 
		763.6,146.7 766,146.7 768.4,146.7 770.8,146.7 773.2,146.7 775.6,146.7 778,146.7 780.4,146.7 782.8,146.7 785.2,146.7 
		787.6,146.7 790,146.7 792.4,146.5 794.8,146.5 797.2,146.5 799.6,146.5 802,146.5 804.4,146.5 806.8,146.5 809.2,146.5 
		811.6,146.5 814,146.5 816.4,146.5 818.8,146.5 821.2,146.5 823.6,146.2 826,146.2 828.4,146.2 830.8,146.2 833.2,146.2 
		835.6,146.2 838,146.2 840.4,146.2 842.8,146.2 845.2,146.2 847.6,146.2 850,146.2 852.4,146.2 854.8,146.2 857.2,145.9 
		859.6,145.9 862,145.9 864.4,145.9 866.8,145.9 869.2,145.9 871.6,145.9 874,145.9 876.4,145.9 878.8,145.9 881.2,145.9 
		883.6,145.9 886,145.9 888.4,145.9 890.8,145.9 893.2,145.9 895.6,145.9 898,145.9 900.4,145.9 902.8,145.9 905.2,145.9 
		907.6,145.9 910,145.9 912.4,145.9 914.8,145.9 917.2,145.9 919.6,145.9 922,145.9 924.4,145.9 926.8,145.9 929.2,145.9 
		931.6,145.9 934,145.9 936.4,145.9 938.8,145.9 941.2,145.9 943.6,145.9 946,145.9 948.4,145.9 950.8,145.9 	"/>
	<rect class="st0" width="1000" height="400"/>
	<rect x="57.4" y="255.9" class="st0" width="4.9" height="10.4"/>
	<text transform="matrix(1 0 0 1 57.4458 263.4102)" class="st3 st4 st5">5</text>
	<rect x="57.6" y="175.9" class="st0" width="9.8" height="10.4"/>
	<text transform="matrix(1 0 0 1 57.5518 183.4697)" class="st3 st4 st5">10</text>
	<polyline class="st6" points="77,340.2 79.5,340.2 953.2,340.2 	"/>
	<g>
		<rect x="33.3" y="24.1" class="st0" width="961.2" height="315.4"/>
		<line class="st7" x1="77" y1="343" x2="77" y2="339.5"/>
		<rect x="58.9" y="343.2" class="st0" width="36.2" height="10.4"/>
		<text transform="matrix(1 0 0 1 58.855 350.7239)" class="st3 st4 st5">Jan 2023</text>
	</g>
	<text transform="matrix(1 0 0 1 836.6354 380.7159)" class="st4 st5">Data: sunrise-and-sunset.com</text>
	<line class="st7" x1="293" y1="342.6" x2="293" y2="339.9"/>
	<text transform="matrix(1 0 0 1 495.1092 352.5812)" class="st3 st4 st5">Jul 2023</text>
	<text transform="matrix(1 0 0 1 714.9271 353.5822)" class="st3 st4 st5">Oct 2023</text>
	<rect x="935.1" y="348.5" class="st0" width="36.2" height="10.4"/>
	<text transform="matrix(1 0 0 1 935.125 356.0344)" class="st3 st4 st5">Jan 2024</text>
	<text transform="matrix(1 0 0 1 276.8756 350.8298)" class="st3 st4 st5">Apr 2023</text>
	<line class="st7" x1="511.5" y1="342.6" x2="511.5" y2="339.9"/>
	<line class="st7" x1="732.4" y1="344" x2="732.4" y2="341.3"/>
	<line class="st7" x1="953.2" y1="342.9" x2="953.2" y2="340.2"/>
	<text transform="matrix(1 0 0 1 26.6904 103.5298)" class="st8 st9">15 hours</text>
	<g>
		<line class="st10" x1="511.3" y1="147.1" x2="511.7" y2="197.6"/>
		<g>
			<line class="st11" x1="511.4" y1="155.6" x2="511.7" y2="197.6"/>
			<g>
				<polygon class="st10" points="502,173.4 504.8,174.4 511.4,155.9 518.2,174.3 521,173.3 511.3,147.1 				"/>
			</g>
		</g>
		<line class="st10" x1="511.3" y1="147.1" x2="511.7" y2="197.6"/>
	</g>
	<text transform="matrix(1 0 0 1 429.551 210.2146)"><tspan x="0" y="0" class="st10 st8 st12">year round, days in nairobi </tspan><tspan x="9.8" y="18" class="st10 st8 st12">are about 12 hours long</tspan></text>
</g>
<g id="ai2html-settings">
	<rect x="-450" class="st0" width="400" height="418"/>
	<text id="ai2html-settings_00000135682111730501396930000010237486391776913036_" transform="matrix(1 0 0 1 -450 10.6499)"><tspan x="0" y="0" class="st8 st12">ai2html-settings</tspan><tspan x="0" y="19" class="st8 st12">settings_version: 0.115.5</tspan><tspan x="0" y="38" class="st8 st12">image_format: auto</tspan><tspan x="0" y="57" class="st8 st12">responsiveness: fixed</tspan><tspan x="0" y="76" class="st8 st12">output: one-file</tspan><tspan x="0" y="95" class="st8 st12">html_output_path: /ai2html-output/</tspan><tspan x="0" y="114" class="st8 st12">html_output_extension: .html</tspan><tspan x="0" y="133" class="st8 st12">image_output_path: </tspan><tspan x="0" y="152" class="st8 st12">local_preview_template: </tspan><tspan x="0" y="171" class="st8 st12">png_number_of_colors: 128</tspan><tspan x="0" y="190" class="st8 st12">jpg_quality: 60</tspan><tspan x="0" y="209" class="st8 st12">headline: </tspan><tspan x="0" y="228" class="st8 st12">leadin: </tspan><tspan x="0" y="247" class="st8 st12">notes: </tspan><tspan x="0" y="266" class="st8 st12">sources: </tspan><tspan x="0" y="285" class="st8 st12">credit: </tspan></text>
</g>
</svg>
