<?xml version="1.0" encoding="utf-8"?>
<!-- Generator: Adobe Illustrator 27.2.0, SVG Export Plug-In . SVG Version: 6.00 Build 0)  -->
<svg version="1.1" id="Layer_1" xmlns="http://www.w3.org/2000/svg" xmlns:xlink="http://www.w3.org/1999/xlink" x="0px" y="0px"
	 viewBox="0 0 300 450" style="enable-background:new 0 0 300 450;" xml:space="preserve">
<style type="text/css">
	.st0{fill:#FFFFFF;}
	.st1{fill:none;}
	.st2{fill:#FFFFFF;stroke:#FFFFFF;stroke-width:1.07;stroke-linecap:round;stroke-linejoin:round;stroke-miterlimit:10;}
	.st3{fill:none;stroke:#D3D3D3;stroke-width:1.07;stroke-linejoin:round;stroke-miterlimit:10;}
	.st4{fill:none;stroke:#FFA500;stroke-width:4.27;stroke-linejoin:round;stroke-miterlimit:10;}
	.st5{fill:#4D4D4D;}
	.st6{font-family:'ArialMT';}
	.st7{font-size:8.8px;}
	.st8{fill:#F49700;}
	.st9{font-family:'MyriadPro-Regular';}
	.st10{font-size:12px;}
	.st11{fill:none;stroke:#F49700;stroke-width:2;stroke-miterlimit:10;}
</style>
<rect class="st0" width="300" height="450"/>
<rect class="st1" width="300" height="450"/>
<rect class="st2" width="300" height="450"/>
<rect x="33.3" y="39.1" class="st1" width="261.2" height="365.4"/>
<rect x="33.3" y="39.1" class="st0" width="261.2" height="365.4"/>
<polyline class="st3" points="45.1,177.1 45.8,176.8 46.5,176.8 47.1,176.8 47.8,176.8 48.4,176.8 49.1,176.4 49.7,176.4 
	50.4,176.4 51,176.4 51.7,176.1 52.3,176.1 53,176.1 53.6,175.8 54.3,175.8 54.9,175.8 55.6,175.5 56.2,175.5 56.9,175.2 
	57.5,175.2 58.2,175.2 58.8,174.9 59.5,174.9 60.2,174.6 60.8,174.6 61.5,174.3 62.1,174.3 62.8,174 63.4,174 64.1,173.7 
	64.7,173.7 65.4,173.4 66,173.4 66.7,173.1 67.3,173.1 68,172.8 68.6,172.8 69.3,172.4 69.9,172.4 70.6,172.1 71.2,172.1 
	71.9,171.8 72.6,171.5 73.2,171.5 73.8,171.2 74.5,171.2 75.2,170.9 75.8,170.6 76.5,170.6 77.1,170.3 77.8,170.3 78.4,170 
	79.1,169.7 79.7,169.7 80.4,169.4 81,169 81.7,169 82.3,168.7 83,168.4 83.6,168.4 84.3,168.1 84.9,167.8 85.6,167.8 86.2,167.5 
	86.9,167.2 87.6,167.2 88.2,166.9 88.9,166.6 89.5,166.6 90.2,166.3 90.8,166 91.5,166 92.1,165.6 92.8,165.3 93.4,165.3 94.1,165 
	94.7,164.7 95.4,164.7 96,164.4 96.7,164.1 97.3,164.1 98,163.8 98.7,163.5 99.3,163.5 99.9,163.2 100.6,162.9 101.3,162.9 
	101.9,162.6 102.6,162.2 103.2,162.2 103.9,161.9 104.5,161.6 105.2,161.6 105.8,161.3 106.5,161 107.1,161 107.8,160.7 
	108.4,160.4 109.1,160.4 109.7,160.1 110.4,159.8 111,159.8 111.7,159.5 112.3,159.2 113,159.2 113.7,158.9 114.3,158.9 115,158.6 
	115.6,158.2 116.3,158.2 116.9,157.9 117.6,157.6 118.2,157.6 118.9,157.3 119.5,157.3 120.2,157 120.8,156.7 121.5,156.7 
	122.1,156.4 122.8,156.4 123.4,156.1 124.1,155.8 124.8,155.8 125.4,155.5 126.1,155.5 126.7,155.1 127.4,155.1 128,154.8 
	128.7,154.8 129.3,154.5 130,154.5 130.6,154.2 131.3,154.2 131.9,153.9 132.6,153.9 133.2,153.6 133.9,153.6 134.5,153.3 
	135.2,153.3 135.8,153 136.5,153 137.1,153 137.8,152.7 138.4,152.7 139.1,152.7 139.8,152.4 140.4,152.4 141.1,152.1 141.7,152.1 
	142.4,152.1 143,152.1 143.7,151.8 144.3,151.8 145,151.8 145.6,151.4 146.3,151.4 146.9,151.4 147.6,151.4 148.2,151.4 
	148.9,151.1 149.5,151.1 150.2,151.1 150.8,151.1 151.5,151.1 152.1,151.1 152.8,151.1 153.4,151.1 154.1,150.8 154.8,150.8 
	155.4,150.8 156.1,150.8 156.7,150.8 157.4,150.8 158,150.8 158.7,150.8 159.3,150.8 160,150.8 160.6,151.1 161.3,151.1 
	161.9,151.1 162.6,151.1 163.2,151.1 163.9,151.1 164.6,151.1 165.2,151.4 165.9,151.4 166.5,151.4 167.2,151.4 167.8,151.4 
	168.5,151.8 169.1,151.8 169.8,151.8 170.4,151.8 171.1,152.1 171.7,152.1 172.4,152.1 173,152.4 173.7,152.4 174.3,152.4 
	175,152.7 175.6,152.7 176.3,153 176.9,153 177.6,153 178.2,153.3 178.9,153.3 179.6,153.6 180.2,153.6 180.9,153.6 181.5,153.9 
	182.2,153.9 182.8,154.2 183.5,154.2 184.1,154.5 184.8,154.5 185.4,154.8 186.1,154.8 186.7,155.1 187.4,155.1 188,155.5 
	188.7,155.8 189.3,155.8 190,156.1 190.6,156.1 191.3,156.4 191.9,156.4 192.6,156.7 193.3,157 193.9,157 194.6,157.3 195.2,157.3 
	195.9,157.6 196.5,157.9 197.2,157.9 197.8,158.2 198.5,158.2 199.1,158.6 199.8,158.9 200.4,158.9 201.1,159.2 201.7,159.5 
	202.4,159.5 203,159.8 203.7,159.8 204.4,160.1 205,160.4 205.6,160.4 206.3,160.7 207,161 207.6,161 208.3,161.3 208.9,161.6 
	209.6,161.6 210.2,161.9 210.9,162.2 211.5,162.2 212.2,162.6 212.8,162.9 213.5,162.9 214.1,163.2 214.8,163.5 215.4,163.5 
	216.1,163.8 216.7,164.1 217.4,164.1 218.1,164.4 218.7,164.7 219.4,164.7 220,165 220.7,165.3 221.3,165.3 222,165.6 222.6,166 
	223.3,166 223.9,166.3 224.6,166.6 225.2,166.6 225.9,166.9 226.5,167.2 227.2,167.2 227.8,167.5 228.5,167.8 229.1,167.8 
	229.8,168.1 230.4,168.1 231.1,168.4 231.8,168.7 232.4,168.7 233.1,169 233.7,169.4 234.4,169.4 235,169.7 235.7,170 236.3,170 
	237,170.3 237.6,170.3 238.3,170.6 238.9,170.9 239.6,170.9 240.2,171.2 240.9,171.2 241.5,171.5 242.2,171.8 242.8,171.8 
	243.5,172.1 244.1,172.1 244.8,172.4 245.4,172.4 246.1,172.8 246.8,172.8 247.4,173.1 248.1,173.4 248.7,173.4 249.4,173.7 
	250,173.7 250.7,174 251.3,174 252,174.3 252.6,174.3 253.3,174.3 253.9,174.6 254.6,174.6 255.2,174.9 255.9,174.9 256.5,175.2 
	257.2,175.2 257.9,175.2 258.5,175.5 259.2,175.5 259.8,175.8 260.5,175.8 261.1,175.8 261.8,176.1 262.4,176.1 263.1,176.1 
	263.7,176.1 264.4,176.4 265,176.4 265.7,176.4 266.3,176.8 267,176.8 267.6,176.8 268.3,176.8 268.9,176.8 269.6,177.1 
	270.2,177.1 270.9,177.1 271.5,177.1 272.2,177.1 272.9,177.1 273.5,177.1 274.2,177.1 274.8,177.1 275.5,177.1 276.1,177.1 
	276.8,177.1 277.4,177.1 278.1,177.1 278.7,177.1 279.4,177.1 280,177.1 280.7,177.1 281.3,177.1 282,177.1 282.6,177.1 "/>
<polyline class="st3" points="45.1,206.4 45.8,206.4 46.5,206.1 47.1,205.8 47.8,205.8 48.4,205.5 49.1,205.2 49.7,204.9 
	50.4,204.6 51,204.2 51.7,203.9 52.3,203.6 53,203.3 53.6,203 54.3,202.7 54.9,202.4 55.6,201.8 56.2,201.5 56.9,201.1 57.5,200.5 
	58.2,200.2 58.8,199.6 59.5,199.3 60.2,198.7 60.8,198.4 61.5,197.8 62.1,197.4 62.8,196.8 63.4,196.2 64.1,195.9 64.7,195.3 
	65.4,194.7 66,194.1 66.7,193.7 67.3,193.1 68,192.5 68.6,191.9 69.3,191.3 69.9,190.6 70.6,190 71.2,189.4 71.9,189.1 72.6,188.5 
	73.2,187.9 73.8,187.3 74.5,186.6 75.2,186 75.8,185.1 76.5,184.5 77.1,183.9 77.8,183.2 78.4,182.6 79.1,182 79.7,181.4 
	80.4,180.8 81,180.2 81.7,179.5 82.3,178.6 83,178 83.6,177.4 84.3,176.8 84.9,176.1 85.6,175.5 86.2,174.6 86.9,174 87.6,173.4 
	88.2,172.8 88.9,172.1 89.5,171.2 90.2,170.6 90.8,170 91.5,169.4 92.1,168.4 92.8,167.8 93.4,167.2 94.1,166.6 94.7,166 95.4,165 
	96,164.4 96.7,163.8 97.3,163.2 98,162.2 98.7,161.6 99.3,161 99.9,160.4 100.6,159.8 101.3,158.9 101.9,158.2 102.6,157.6 
	103.2,157 103.9,156.4 104.5,155.5 105.2,154.8 105.8,154.2 106.5,153.6 107.1,153 107.8,152.4 108.4,151.4 109.1,150.8 
	109.7,150.2 110.4,149.6 111,149 111.7,148.4 112.3,147.7 113,146.8 113.7,146.2 114.3,145.6 115,145 115.6,144.4 116.3,143.7 
	116.9,143.1 117.6,142.5 118.2,141.9 118.9,141.3 119.5,140.6 120.2,140 120.8,139.4 121.5,138.8 122.1,138.2 122.8,137.6 
	123.4,136.9 124.1,136.3 124.8,136 125.4,135.4 126.1,134.8 126.7,134.2 127.4,133.5 128,133.2 128.7,132.6 129.3,132 130,131.4 
	130.6,131.1 131.3,130.5 131.9,129.8 132.6,129.5 133.2,128.9 133.9,128.6 134.5,128 135.2,127.7 135.8,127.1 136.5,126.8 
	137.1,126.4 137.8,125.8 138.4,125.5 139.1,125.2 139.8,124.9 140.4,124.3 141.1,124 141.7,123.7 142.4,123.4 143,123.1 
	143.7,122.7 144.3,122.4 145,122.1 145.6,121.8 146.3,121.8 146.9,121.5 147.6,121.2 148.2,120.9 148.9,120.9 149.5,120.6 
	150.2,120.6 150.8,120.3 151.5,120.3 152.1,120 152.8,120 153.4,120 154.1,120 154.8,119.7 155.4,119.7 156.1,119.7 156.7,119.7 
	157.4,119.7 158,119.7 158.7,119.7 159.3,119.7 160,120 160.6,120 161.3,120 161.9,120 162.6,120.3 163.2,120.3 163.9,120.6 
	164.6,120.6 165.2,120.9 165.9,120.9 166.5,121.2 167.2,121.5 167.8,121.8 168.5,121.8 169.1,122.1 169.8,122.4 170.4,122.7 
	171.1,123.1 171.7,123.4 172.4,123.7 173,124 173.7,124.3 174.3,124.9 175,125.2 175.6,125.5 176.3,125.8 176.9,126.4 177.6,126.8 
	178.2,127.1 178.9,127.7 179.6,128 180.2,128.6 180.9,128.9 181.5,129.5 182.2,129.8 182.8,130.5 183.5,130.8 184.1,131.4 
	184.8,132 185.4,132.3 186.1,132.9 186.7,133.5 187.4,134.2 188,134.5 188.7,135.1 189.3,135.7 190,136.3 190.6,136.9 191.3,137.6 
	191.9,137.9 192.6,138.5 193.3,139.1 193.9,139.7 194.6,140.3 195.2,140.9 195.9,141.6 196.5,142.2 197.2,142.8 197.8,143.4 
	198.5,144 199.1,144.7 199.8,145.3 200.4,145.9 201.1,146.5 201.7,147.1 202.4,147.7 203,148.7 203.7,149.3 204.4,149.9 205,150.5 
	205.6,151.1 206.3,151.8 207,152.4 207.6,153 208.3,153.9 208.9,154.5 209.6,155.1 210.2,155.8 210.9,156.4 211.5,157 212.2,157.9 
	212.8,158.6 213.5,159.2 214.1,159.8 214.8,160.4 215.4,161 216.1,161.9 216.7,162.6 217.4,163.2 218.1,163.8 218.7,164.4 
	219.4,165.3 220,166 220.7,166.6 221.3,167.2 222,167.8 222.6,168.4 223.3,169.4 223.9,170 224.6,170.6 225.2,171.2 225.9,171.8 
	226.5,172.8 227.2,173.4 227.8,174 228.5,174.6 229.1,175.2 229.8,175.8 230.4,176.4 231.1,177.4 231.8,178 232.4,178.6 
	233.1,179.2 233.7,179.9 234.4,180.5 235,181.1 235.7,181.7 236.3,182.3 237,183.2 237.6,183.9 238.3,184.5 238.9,185.1 
	239.6,185.7 240.2,186.3 240.9,186.9 241.5,187.6 242.2,188.2 242.8,188.8 243.5,189.4 244.1,190 244.8,190.4 245.4,191 
	246.1,191.6 246.8,192.2 247.4,192.8 248.1,193.4 248.7,193.7 249.4,194.4 250,195 250.7,195.6 251.3,195.9 252,196.5 252.6,197.1 
	253.3,197.4 253.9,198.1 254.6,198.4 255.2,199 255.9,199.3 256.5,199.9 257.2,200.2 257.9,200.8 258.5,201.1 259.2,201.5 
	259.8,202.1 260.5,202.4 261.1,202.7 261.8,203 262.4,203.3 263.1,203.6 263.7,203.9 264.4,204.2 265,204.6 265.7,204.9 
	266.3,205.2 267,205.5 267.6,205.8 268.3,205.8 268.9,206.1 269.6,206.4 270.2,206.4 270.9,206.7 271.5,206.7 272.2,207 272.9,207 
	273.5,207 274.2,207.3 274.8,207.3 275.5,207.3 276.1,207.3 276.8,207.3 277.4,207.3 278.1,207.3 278.7,207.3 279.4,207.3 280,207 
	280.7,207 281.3,207 282,206.7 282.6,206.7 "/>
<polyline class="st3" points="45.1,162.9 45.8,162.9 46.5,162.9 47.1,162.9 47.8,162.9 48.4,162.9 49.1,162.9 49.7,162.9 
	50.4,162.9 51,162.9 51.7,162.9 52.3,162.9 53,162.9 53.6,162.9 54.3,162.9 54.9,162.9 55.6,162.9 56.2,162.9 56.9,162.9 
	57.5,162.9 58.2,163.2 58.8,163.2 59.5,163.2 60.2,163.2 60.8,163.2 61.5,163.2 62.1,163.2 62.8,163.2 63.4,163.2 64.1,163.2 
	64.7,163.2 65.4,163.2 66,163.2 66.7,163.2 67.3,163.5 68,163.5 68.6,163.5 69.3,163.5 69.9,163.5 70.6,163.5 71.2,163.5 
	71.9,163.5 72.6,163.5 73.2,163.5 73.8,163.5 74.5,163.5 75.2,163.5 75.8,163.8 76.5,163.8 77.1,163.8 77.8,163.8 78.4,163.8 
	79.1,163.8 79.7,163.8 80.4,163.8 81,163.8 81.7,163.8 82.3,163.8 83,163.8 83.6,163.8 84.3,164.1 84.9,164.1 85.6,164.1 
	86.2,164.1 86.9,164.1 87.6,164.1 88.2,164.1 88.9,164.1 89.5,164.1 90.2,164.1 90.8,164.1 91.5,164.1 92.1,164.1 92.8,164.4 
	93.4,164.4 94.1,164.4 94.7,164.4 95.4,164.4 96,164.4 96.7,164.4 97.3,164.4 98,164.4 98.7,164.4 99.3,164.4 99.9,164.4 
	100.6,164.4 101.3,164.4 101.9,164.7 102.6,164.7 103.2,164.7 103.9,164.7 104.5,164.7 105.2,164.7 105.8,164.7 106.5,164.7 
	107.1,164.7 107.8,164.7 108.4,164.7 109.1,164.7 109.7,164.7 110.4,164.7 111,164.7 111.7,164.7 112.3,165 113,165 113.7,165 
	114.3,165 115,165 115.6,165 116.3,165 116.9,165 117.6,165 118.2,165 118.9,165 119.5,165 120.2,165 120.8,165 121.5,165 
	122.1,165 122.8,165 123.4,165 124.1,165 124.8,165 125.4,165.3 126.1,165.3 126.7,165.3 127.4,165.3 128,165.3 128.7,165.3 
	129.3,165.3 130,165.3 130.6,165.3 131.3,165.3 131.9,165.3 132.6,165.3 133.2,165.3 133.9,165.3 134.5,165.3 135.2,165.3 
	135.8,165.3 136.5,165.3 137.1,165.3 137.8,165.3 138.4,165.3 139.1,165.3 139.8,165.3 140.4,165.3 141.1,165.3 141.7,165.3 
	142.4,165.3 143,165.3 143.7,165.3 144.3,165.3 145,165.3 145.6,165.3 146.3,165.3 146.9,165.3 147.6,165.3 148.2,165.3 
	148.9,165.3 149.5,165.3 150.2,165.3 150.8,165.3 151.5,165.6 152.1,165.6 152.8,165.6 153.4,165.6 154.1,165.6 154.8,165.6 
	155.4,165.6 156.1,165.6 156.7,165.6 157.4,165.6 158,165.6 158.7,165.6 159.3,165.6 160,165.6 160.6,165.6 161.3,165.6 
	161.9,165.6 162.6,165.6 163.2,165.6 163.9,165.3 164.6,165.3 165.2,165.3 165.9,165.3 166.5,165.3 167.2,165.3 167.8,165.3 
	168.5,165.3 169.1,165.3 169.8,165.3 170.4,165.3 171.1,165.3 171.7,165.3 172.4,165.3 173,165.3 173.7,165.3 174.3,165.3 
	175,165.3 175.6,165.3 176.3,165.3 176.9,165.3 177.6,165.3 178.2,165.3 178.9,165.3 179.6,165.3 180.2,165.3 180.9,165.3 
	181.5,165.3 182.2,165.3 182.8,165.3 183.5,165.3 184.1,165.3 184.8,165.3 185.4,165.3 186.1,165.3 186.7,165.3 187.4,165.3 
	188,165.3 188.7,165.3 189.3,165 190,165 190.6,165 191.3,165 191.9,165 192.6,165 193.3,165 193.9,165 194.6,165 195.2,165 
	195.9,165 196.5,165 197.2,165 197.8,165 198.5,165 199.1,165 199.8,165 200.4,165 201.1,165 201.7,165 202.4,165 203,164.7 
	203.7,164.7 204.4,164.7 205,164.7 205.6,164.7 206.3,164.7 207,164.7 207.6,164.7 208.3,164.7 208.9,164.7 209.6,164.7 
	210.2,164.7 210.9,164.7 211.5,164.7 212.2,164.7 212.8,164.7 213.5,164.4 214.1,164.4 214.8,164.4 215.4,164.4 216.1,164.4 
	216.7,164.4 217.4,164.4 218.1,164.4 218.7,164.4 219.4,164.4 220,164.4 220.7,164.4 221.3,164.4 222,164.4 222.6,164.1 
	223.3,164.1 223.9,164.1 224.6,164.1 225.2,164.1 225.9,164.1 226.5,164.1 227.2,164.1 227.8,164.1 228.5,164.1 229.1,164.1 
	229.8,164.1 230.4,164.1 231.1,163.8 231.8,163.8 232.4,163.8 233.1,163.8 233.7,163.8 234.4,163.8 235,163.8 235.7,163.8 
	236.3,163.8 237,163.8 237.6,163.8 238.3,163.8 238.9,163.8 239.6,163.5 240.2,163.5 240.9,163.5 241.5,163.5 242.2,163.5 
	242.8,163.5 243.5,163.5 244.1,163.5 244.8,163.5 245.4,163.5 246.1,163.5 246.8,163.5 247.4,163.5 248.1,163.2 248.7,163.2 
	249.4,163.2 250,163.2 250.7,163.2 251.3,163.2 252,163.2 252.6,163.2 253.3,163.2 253.9,163.2 254.6,163.2 255.2,163.2 
	255.9,163.2 256.5,163.2 257.2,162.9 257.9,162.9 258.5,162.9 259.2,162.9 259.8,162.9 260.5,162.9 261.1,162.9 261.8,162.9 
	262.4,162.9 263.1,162.9 263.7,162.9 264.4,162.9 265,162.9 265.7,162.9 266.3,162.9 267,162.9 267.6,162.9 268.3,162.9 
	268.9,162.9 269.6,162.9 270.2,162.9 270.9,162.9 271.5,162.9 272.2,162.9 272.9,162.9 273.5,162.9 274.2,162.9 274.8,162.9 
	275.5,162.9 276.1,162.9 276.8,162.9 277.4,162.9 278.1,162.9 278.7,162.9 279.4,162.9 280,162.9 280.7,162.9 281.3,162.9 
	282,162.9 282.6,162.9 "/>
<polyline class="st3" points="45.1,180.2 45.8,180.2 46.5,179.9 47.1,179.9 47.8,179.9 48.4,179.9 49.1,179.5 49.7,179.5 
	50.4,179.5 51,179.2 51.7,179.2 52.3,179.2 53,178.9 53.6,178.9 54.3,178.6 54.9,178.6 55.6,178.3 56.2,178.3 56.9,178 57.5,178 
	58.2,177.7 58.8,177.7 59.5,177.4 60.2,177.4 60.8,177.1 61.5,177.1 62.1,176.8 62.8,176.4 63.4,176.4 64.1,176.1 64.7,176.1 
	65.4,175.8 66,175.5 66.7,175.5 67.3,175.2 68,174.9 68.6,174.9 69.3,174.6 69.9,174.3 70.6,174.3 71.2,174 71.9,173.7 72.6,173.4 
	73.2,173.4 73.8,173.1 74.5,172.8 75.2,172.4 75.8,172.4 76.5,172.1 77.1,171.8 77.8,171.5 78.4,171.5 79.1,171.2 79.7,170.9 
	80.4,170.6 81,170.3 81.7,170.3 82.3,170 83,169.7 83.6,169.4 84.3,169 84.9,168.7 85.6,168.7 86.2,168.4 86.9,168.1 87.6,167.8 
	88.2,167.5 88.9,167.2 89.5,167.2 90.2,166.9 90.8,166.6 91.5,166.3 92.1,166 92.8,165.6 93.4,165.6 94.1,165.3 94.7,165 
	95.4,164.7 96,164.4 96.7,164.1 97.3,164.1 98,163.8 98.7,163.5 99.3,163.2 99.9,162.9 100.6,162.6 101.3,162.6 101.9,162.2 
	102.6,161.9 103.2,161.6 103.9,161.3 104.5,161 105.2,161 105.8,160.7 106.5,160.4 107.1,160.1 107.8,159.8 108.4,159.5 
	109.1,159.5 109.7,159.2 110.4,158.9 111,158.6 111.7,158.2 112.3,158.2 113,157.9 113.7,157.6 114.3,157.3 115,157 115.6,157 
	116.3,156.7 116.9,156.4 117.6,156.1 118.2,156.1 118.9,155.8 119.5,155.5 120.2,155.1 120.8,155.1 121.5,154.8 122.1,154.5 
	122.8,154.2 123.4,154.2 124.1,153.9 124.8,153.6 125.4,153.3 126.1,153.3 126.7,153 127.4,152.7 128,152.7 128.7,152.4 
	129.3,152.4 130,152.1 130.6,151.8 131.3,151.8 131.9,151.4 132.6,151.1 133.2,151.1 133.9,150.8 134.5,150.8 135.2,150.5 
	135.8,150.5 136.5,150.2 137.1,150.2 137.8,149.9 138.4,149.9 139.1,149.6 139.8,149.6 140.4,149.3 141.1,149.3 141.7,149.3 
	142.4,149 143,149 143.7,148.7 144.3,148.7 145,148.7 145.6,148.4 146.3,148.4 146.9,148.4 147.6,148.4 148.2,148.1 148.9,148.1 
	149.5,148.1 150.2,148.1 150.8,147.7 151.5,147.7 152.1,147.7 152.8,147.7 153.4,147.7 154.1,147.7 154.8,147.7 155.4,147.7 
	156.1,147.7 156.7,147.7 157.4,147.7 158,147.7 158.7,147.7 159.3,147.7 160,147.7 160.6,147.7 161.3,147.7 161.9,147.7 
	162.6,147.7 163.2,148.1 163.9,148.1 164.6,148.1 165.2,148.1 165.9,148.1 166.5,148.4 167.2,148.4 167.8,148.4 168.5,148.4 
	169.1,148.7 169.8,148.7 170.4,148.7 171.1,149 171.7,149 172.4,149.3 173,149.3 173.7,149.3 174.3,149.6 175,149.6 175.6,149.9 
	176.3,149.9 176.9,150.2 177.6,150.2 178.2,150.5 178.9,150.5 179.6,150.8 180.2,150.8 180.9,151.1 181.5,151.4 182.2,151.4 
	182.8,151.8 183.5,151.8 184.1,152.1 184.8,152.4 185.4,152.4 186.1,152.7 186.7,152.7 187.4,153 188,153.3 188.7,153.3 
	189.3,153.6 190,153.9 190.6,154.2 191.3,154.2 191.9,154.5 192.6,154.8 193.3,154.8 193.9,155.1 194.6,155.5 195.2,155.8 
	195.9,155.8 196.5,156.1 197.2,156.4 197.8,156.7 198.5,156.7 199.1,157 199.8,157.3 200.4,157.6 201.1,157.9 201.7,157.9 
	202.4,158.2 203,158.6 203.7,158.9 204.4,158.9 205,159.2 205.6,159.5 206.3,159.8 207,160.1 207.6,160.4 208.3,160.4 208.9,160.7 
	209.6,161 210.2,161.3 210.9,161.6 211.5,161.6 212.2,161.9 212.8,162.2 213.5,162.6 214.1,162.9 214.8,163.2 215.4,163.2 
	216.1,163.5 216.7,163.8 217.4,164.1 218.1,164.4 218.7,164.7 219.4,164.7 220,165 220.7,165.3 221.3,165.6 222,166 222.6,166.3 
	223.3,166.3 223.9,166.6 224.6,166.9 225.2,167.2 225.9,167.5 226.5,167.5 227.2,167.8 227.8,168.1 228.5,168.4 229.1,168.7 
	229.8,168.7 230.4,169 231.1,169.4 231.8,169.7 232.4,170 233.1,170 233.7,170.3 234.4,170.6 235,170.9 235.7,171.2 236.3,171.2 
	237,171.5 237.6,171.8 238.3,172.1 238.9,172.1 239.6,172.4 240.2,172.8 240.9,173.1 241.5,173.1 242.2,173.4 242.8,173.7 
	243.5,174 244.1,174 244.8,174.3 245.4,174.6 246.1,174.6 246.8,174.9 247.4,175.2 248.1,175.2 248.7,175.5 249.4,175.8 250,175.8 
	250.7,176.1 251.3,176.4 252,176.4 252.6,176.8 253.3,176.8 253.9,177.1 254.6,177.4 255.2,177.4 255.9,177.7 256.5,177.7 
	257.2,178 257.9,178 258.5,178.3 259.2,178.3 259.8,178.6 260.5,178.6 261.1,178.9 261.8,178.9 262.4,178.9 263.1,179.2 
	263.7,179.2 264.4,179.2 265,179.5 265.7,179.5 266.3,179.5 267,179.9 267.6,179.9 268.3,179.9 268.9,179.9 269.6,180.2 
	270.2,180.2 270.9,180.2 271.5,180.2 272.2,180.2 272.9,180.2 273.5,180.5 274.2,180.5 274.8,180.5 275.5,180.5 276.1,180.5 
	276.8,180.5 277.4,180.5 278.1,180.5 278.7,180.5 279.4,180.5 280,180.5 280.7,180.2 281.3,180.2 282,180.2 282.6,180.2 "/>
<polyline class="st3" points="45.1,201.8 45.8,201.5 46.5,201.5 47.1,201.1 47.8,200.8 48.4,200.8 49.1,200.5 49.7,200.2 
	50.4,199.9 51,199.9 51.7,199.6 52.3,199.3 53,199 53.6,198.7 54.3,198.4 54.9,198.1 55.6,197.4 56.2,197.1 56.9,196.8 57.5,196.5 
	58.2,196.2 58.8,195.6 59.5,195.3 60.2,195 60.8,194.4 61.5,194.1 62.1,193.7 62.8,193.1 63.4,192.8 64.1,192.2 64.7,191.9 
	65.4,191.3 66,191 66.7,190.4 67.3,189.7 68,189.4 68.6,188.8 69.3,188.2 69.9,187.9 70.6,187.3 71.2,186.6 71.9,186.3 72.6,185.7 
	73.2,185.1 73.8,184.5 74.5,184.2 75.2,183.6 75.8,182.9 76.5,182.3 77.1,181.7 77.8,181.1 78.4,180.8 79.1,180.2 79.7,179.5 
	80.4,178.9 81,178.3 81.7,177.7 82.3,177.1 83,176.4 83.6,175.8 84.3,175.2 84.9,174.9 85.6,174.3 86.2,173.7 86.9,173.1 
	87.6,172.4 88.2,171.8 88.9,171.2 89.5,170.6 90.2,170 90.8,169.4 91.5,168.7 92.1,168.1 92.8,167.5 93.4,166.9 94.1,166.3 
	94.7,165.6 95.4,165 96,164.4 96.7,163.8 97.3,163.2 98,162.6 98.7,161.9 99.3,161.3 99.9,160.7 100.6,160.1 101.3,159.5 
	101.9,158.9 102.6,158.2 103.2,157.9 103.9,157.3 104.5,156.7 105.2,156.1 105.8,155.5 106.5,154.8 107.1,154.2 107.8,153.6 
	108.4,153 109.1,152.4 109.7,151.8 110.4,151.1 111,150.5 111.7,150.2 112.3,149.6 113,149 113.7,148.4 114.3,147.7 115,147.1 
	115.6,146.5 116.3,146.2 116.9,145.6 117.6,145 118.2,144.4 118.9,143.7 119.5,143.4 120.2,142.8 120.8,142.2 121.5,141.6 
	122.1,141.3 122.8,140.6 123.4,140 124.1,139.7 124.8,139.1 125.4,138.5 126.1,138.2 126.7,137.6 127.4,137.2 128,136.6 128.7,136 
	129.3,135.7 130,135.1 130.6,134.8 131.3,134.5 131.9,133.9 132.6,133.5 133.2,132.9 133.9,132.6 134.5,132.3 135.2,131.7 
	135.8,131.4 136.5,131.1 137.1,130.8 137.8,130.5 138.4,129.8 139.1,129.5 139.8,129.2 140.4,128.9 141.1,128.6 141.7,128.3 
	142.4,128 143,127.7 143.7,127.7 144.3,127.4 145,127.1 145.6,126.8 146.3,126.8 146.9,126.4 147.6,126.1 148.2,126.1 148.9,125.8 
	149.5,125.8 150.2,125.5 150.8,125.5 151.5,125.2 152.1,125.2 152.8,125.2 153.4,124.9 154.1,124.9 154.8,124.9 155.4,124.9 
	156.1,124.9 156.7,124.9 157.4,124.9 158,124.9 158.7,124.9 159.3,124.9 160,124.9 160.6,124.9 161.3,125.2 161.9,125.2 
	162.6,125.2 163.2,125.5 163.9,125.5 164.6,125.8 165.2,125.8 165.9,126.1 166.5,126.1 167.2,126.4 167.8,126.8 168.5,126.8 
	169.1,127.1 169.8,127.4 170.4,127.7 171.1,128 171.7,128 172.4,128.3 173,128.6 173.7,128.9 174.3,129.2 175,129.5 175.6,129.8 
	176.3,130.5 176.9,130.8 177.6,131.1 178.2,131.4 178.9,131.7 179.6,132.3 180.2,132.6 180.9,132.9 181.5,133.5 182.2,133.9 
	182.8,134.2 183.5,134.8 184.1,135.1 184.8,135.7 185.4,136 186.1,136.6 186.7,136.9 187.4,137.6 188,137.9 188.7,138.5 
	189.3,139.1 190,139.4 190.6,140 191.3,140.6 191.9,140.9 192.6,141.6 193.3,142.2 193.9,142.5 194.6,143.1 195.2,143.7 
	195.9,144.4 196.5,144.7 197.2,145.3 197.8,145.9 198.5,146.5 199.1,147.1 199.8,147.4 200.4,148.1 201.1,148.7 201.7,149.3 
	202.4,149.9 203,150.5 203.7,150.8 204.4,151.4 205,152.1 205.6,152.7 206.3,153.3 207,153.9 207.6,154.5 208.3,155.1 208.9,155.8 
	209.6,156.1 210.2,156.7 210.9,157.3 211.5,157.9 212.2,158.6 212.8,159.2 213.5,159.8 214.1,160.4 214.8,161 215.4,161.6 
	216.1,162.2 216.7,162.9 217.4,163.5 218.1,164.1 218.7,164.7 219.4,165 220,165.6 220.7,166.3 221.3,166.9 222,167.5 222.6,168.1 
	223.3,168.7 223.9,169.4 224.6,170 225.2,170.6 225.9,171.2 226.5,171.8 227.2,172.4 227.8,173.1 228.5,173.7 229.1,174 
	229.8,174.6 230.4,175.2 231.1,175.8 231.8,176.4 232.4,177.1 233.1,177.7 233.7,178.3 234.4,178.9 235,179.2 235.7,179.9 
	236.3,180.5 237,181.1 237.6,181.7 238.3,182.3 238.9,182.6 239.6,183.2 240.2,183.9 240.9,184.5 241.5,185.1 242.2,185.4 
	242.8,186 243.5,186.6 244.1,186.9 244.8,187.6 245.4,188.2 246.1,188.5 246.8,189.1 247.4,189.7 248.1,190 248.7,190.6 249.4,191 
	250,191.6 250.7,191.9 251.3,192.5 252,192.8 252.6,193.4 253.3,193.7 253.9,194.4 254.6,194.7 255.2,195 255.9,195.6 256.5,195.9 
	257.2,196.2 257.9,196.5 258.5,197.1 259.2,197.4 259.8,197.8 260.5,198.1 261.1,198.4 261.8,198.7 262.4,199 263.1,199.3 
	263.7,199.6 264.4,199.9 265,200.2 265.7,200.2 266.3,200.5 267,200.8 267.6,201.1 268.3,201.1 268.9,201.5 269.6,201.5 
	270.2,201.8 270.9,201.8 271.5,202.1 272.2,202.1 272.9,202.1 273.5,202.4 274.2,202.4 274.8,202.4 275.5,202.4 276.1,202.4 
	276.8,202.4 277.4,202.4 278.1,202.4 278.7,202.4 279.4,202.4 280,202.1 280.7,202.1 281.3,202.1 282,202.1 282.6,201.8 "/>
<polyline class="st3" points="45.1,150.2 45.8,150.2 46.5,150.2 47.1,150.5 47.8,150.5 48.4,150.5 49.1,150.5 49.7,150.8 
	50.4,150.8 51,150.8 51.7,151.1 52.3,151.1 53,151.1 53.6,151.4 54.3,151.4 54.9,151.8 55.6,151.8 56.2,151.8 56.9,152.1 
	57.5,152.1 58.2,152.4 58.8,152.4 59.5,152.7 60.2,152.7 60.8,153 61.5,153 62.1,153.3 62.8,153.3 63.4,153.6 64.1,153.9 
	64.7,153.9 65.4,154.2 66,154.2 66.7,154.5 67.3,154.8 68,154.8 68.6,155.1 69.3,155.1 69.9,155.5 70.6,155.8 71.2,155.8 
	71.9,156.1 72.6,156.4 73.2,156.4 73.8,156.7 74.5,157 75.2,157 75.8,157.3 76.5,157.6 77.1,157.9 77.8,157.9 78.4,158.2 
	79.1,158.6 79.7,158.6 80.4,158.9 81,159.2 81.7,159.2 82.3,159.5 83,159.8 83.6,160.1 84.3,160.1 84.9,160.4 85.6,160.7 86.2,161 
	86.9,161 87.6,161.3 88.2,161.6 88.9,161.6 89.5,161.9 90.2,162.2 90.8,162.6 91.5,162.6 92.1,162.9 92.8,163.2 93.4,163.5 
	94.1,163.5 94.7,163.8 95.4,164.1 96,164.1 96.7,164.4 97.3,164.7 98,165 98.7,165 99.3,165.3 99.9,165.6 100.6,166 101.3,166 
	101.9,166.3 102.6,166.6 103.2,166.6 103.9,166.9 104.5,167.2 105.2,167.5 105.8,167.5 106.5,167.8 107.1,168.1 107.8,168.1 
	108.4,168.4 109.1,168.7 109.7,168.7 110.4,169 111,169.4 111.7,169.4 112.3,169.7 113,170 113.7,170 114.3,170.3 115,170.6 
	115.6,170.6 116.3,170.9 116.9,171.2 117.6,171.2 118.2,171.5 118.9,171.8 119.5,171.8 120.2,172.1 120.8,172.1 121.5,172.4 
	122.1,172.8 122.8,172.8 123.4,173.1 124.1,173.1 124.8,173.4 125.4,173.7 126.1,173.7 126.7,174 127.4,174 128,174.3 128.7,174.3 
	129.3,174.6 130,174.6 130.6,174.9 131.3,174.9 131.9,175.2 132.6,175.2 133.2,175.5 133.9,175.5 134.5,175.8 135.2,175.8 
	135.8,175.8 136.5,176.1 137.1,176.1 137.8,176.4 138.4,176.4 139.1,176.4 139.8,176.8 140.4,176.8 141.1,176.8 141.7,177.1 
	142.4,177.1 143,177.1 143.7,177.4 144.3,177.4 145,177.4 145.6,177.4 146.3,177.7 146.9,177.7 147.6,177.7 148.2,177.7 148.9,178 
	149.5,178 150.2,178 150.8,178 151.5,178 152.1,178 152.8,178 153.4,178 154.1,178 154.8,178.3 155.4,178.3 156.1,178.3 
	156.7,178.3 157.4,178.3 158,178.3 158.7,178.3 159.3,178 160,178 160.6,178 161.3,178 161.9,178 162.6,178 163.2,178 163.9,178 
	164.6,178 165.2,177.7 165.9,177.7 166.5,177.7 167.2,177.7 167.8,177.7 168.5,177.4 169.1,177.4 169.8,177.4 170.4,177.4 
	171.1,177.1 171.7,177.1 172.4,177.1 173,176.8 173.7,176.8 174.3,176.8 175,176.4 175.6,176.4 176.3,176.1 176.9,176.1 
	177.6,176.1 178.2,175.8 178.9,175.8 179.6,175.5 180.2,175.5 180.9,175.2 181.5,175.2 182.2,175.2 182.8,174.9 183.5,174.9 
	184.1,174.6 184.8,174.6 185.4,174.3 186.1,174.3 186.7,174 187.4,173.7 188,173.7 188.7,173.4 189.3,173.4 190,173.1 190.6,173.1 
	191.3,172.8 191.9,172.4 192.6,172.4 193.3,172.1 193.9,172.1 194.6,171.8 195.2,171.5 195.9,171.5 196.5,171.2 197.2,171.2 
	197.8,170.9 198.5,170.6 199.1,170.6 199.8,170.3 200.4,170 201.1,170 201.7,169.7 202.4,169.4 203,169.4 203.7,169 204.4,168.7 
	205,168.7 205.6,168.4 206.3,168.1 207,168.1 207.6,167.8 208.3,167.5 208.9,167.5 209.6,167.2 210.2,166.9 210.9,166.9 
	211.5,166.6 212.2,166.3 212.8,166 213.5,166 214.1,165.6 214.8,165.3 215.4,165.3 216.1,165 216.7,164.7 217.4,164.4 218.1,164.4 
	218.7,164.1 219.4,163.8 220,163.8 220.7,163.5 221.3,163.2 222,162.9 222.6,162.9 223.3,162.6 223.9,162.2 224.6,162.2 
	225.2,161.9 225.9,161.6 226.5,161.3 227.2,161.3 227.8,161 228.5,160.7 229.1,160.7 229.8,160.4 230.4,160.1 231.1,159.8 
	231.8,159.8 232.4,159.5 233.1,159.2 233.7,159.2 234.4,158.9 235,158.6 235.7,158.2 236.3,158.2 237,157.9 237.6,157.6 
	238.3,157.6 238.9,157.3 239.6,157 240.2,157 240.9,156.7 241.5,156.4 242.2,156.4 242.8,156.1 243.5,155.8 244.1,155.8 
	244.8,155.5 245.4,155.1 246.1,155.1 246.8,154.8 247.4,154.8 248.1,154.5 248.7,154.2 249.4,154.2 250,153.9 250.7,153.9 
	251.3,153.6 252,153.6 252.6,153.3 253.3,153 253.9,153 254.6,152.7 255.2,152.7 255.9,152.4 256.5,152.4 257.2,152.1 257.9,152.1 
	258.5,152.1 259.2,151.8 259.8,151.8 260.5,151.4 261.1,151.4 261.8,151.1 262.4,151.1 263.1,151.1 263.7,150.8 264.4,150.8 
	265,150.8 265.7,150.5 266.3,150.5 267,150.5 267.6,150.5 268.3,150.2 268.9,150.2 269.6,150.2 270.2,150.2 270.9,150.2 
	271.5,150.2 272.2,149.9 272.9,149.9 273.5,149.9 274.2,149.9 274.8,149.9 275.5,149.9 276.1,149.9 276.8,149.9 277.4,149.9 
	278.1,149.9 278.7,149.9 279.4,149.9 280,149.9 280.7,149.9 281.3,149.9 282,150.2 282.6,150.2 "/>
<polyline class="st3" points="45.1,198.7 45.8,198.4 46.5,198.4 47.1,198.1 47.8,197.8 48.4,197.8 49.1,197.4 49.7,197.1 
	50.4,197.1 51,196.8 51.7,196.5 52.3,196.2 53,195.9 53.6,195.6 54.3,195.3 54.9,195 55.6,194.7 56.2,194.4 56.9,194.1 57.5,193.7 
	58.2,193.4 58.8,193.1 59.5,192.5 60.2,192.2 60.8,191.9 61.5,191.6 62.1,191 62.8,190.6 63.4,190.4 64.1,189.7 64.7,189.4 
	65.4,188.8 66,188.5 66.7,187.9 67.3,187.6 68,186.9 68.6,186.6 69.3,186 69.9,185.7 70.6,185.1 71.2,184.8 71.9,184.2 72.6,183.6 
	73.2,183.2 73.8,182.6 74.5,182.3 75.2,181.7 75.8,181.1 76.5,180.5 77.1,180.2 77.8,179.5 78.4,178.9 79.1,178.6 79.7,178 
	80.4,177.4 81,176.8 81.7,176.4 82.3,175.8 83,175.2 83.6,174.6 84.3,174.3 84.9,173.7 85.6,173.1 86.2,172.4 86.9,171.8 
	87.6,171.5 88.2,170.9 88.9,170.3 89.5,169.7 90.2,169 90.8,168.7 91.5,168.1 92.1,167.5 92.8,166.9 93.4,166.3 94.1,166 
	94.7,165.3 95.4,164.7 96,164.1 96.7,163.5 97.3,163.2 98,162.6 98.7,161.9 99.3,161.3 99.9,160.7 100.6,160.1 101.3,159.8 
	101.9,159.2 102.6,158.6 103.2,157.9 103.9,157.3 104.5,157 105.2,156.4 105.8,155.8 106.5,155.1 107.1,154.8 107.8,154.2 
	108.4,153.6 109.1,153 109.7,152.7 110.4,152.1 111,151.4 111.7,150.8 112.3,150.5 113,149.9 113.7,149.3 114.3,148.7 115,148.4 
	115.6,147.7 116.3,147.1 116.9,146.8 117.6,146.2 118.2,145.6 118.9,145.3 119.5,144.7 120.2,144.4 120.8,143.7 121.5,143.1 
	122.1,142.8 122.8,142.2 123.4,141.9 124.1,141.3 124.8,140.9 125.4,140.3 126.1,140 126.7,139.4 127.4,139.1 128,138.8 
	128.7,138.2 129.3,137.9 130,137.2 130.6,136.9 131.3,136.6 131.9,136 132.6,135.7 133.2,135.4 133.9,135.1 134.5,134.8 
	135.2,134.2 135.8,133.9 136.5,133.5 137.1,133.2 137.8,132.9 138.4,132.6 139.1,132.3 139.8,132 140.4,131.7 141.1,131.4 
	141.7,131.1 142.4,130.8 143,130.8 143.7,130.5 144.3,130.1 145,129.8 145.6,129.8 146.3,129.5 146.9,129.5 147.6,129.2 
	148.2,129.2 148.9,128.9 149.5,128.9 150.2,128.6 150.8,128.6 151.5,128.3 152.1,128.3 152.8,128.3 153.4,128.3 154.1,128.3 
	154.8,128 155.4,128 156.1,128 156.7,128 157.4,128 158,128 158.7,128 159.3,128.3 160,128.3 160.6,128.3 161.3,128.3 161.9,128.6 
	162.6,128.6 163.2,128.6 163.9,128.9 164.6,128.9 165.2,129.2 165.9,129.2 166.5,129.5 167.2,129.5 167.8,129.8 168.5,130.1 
	169.1,130.1 169.8,130.5 170.4,130.8 171.1,131.1 171.7,131.4 172.4,131.4 173,131.7 173.7,132 174.3,132.3 175,132.6 175.6,132.9 
	176.3,133.2 176.9,133.5 177.6,133.9 178.2,134.5 178.9,134.8 179.6,135.1 180.2,135.4 180.9,135.7 181.5,136.3 182.2,136.6 
	182.8,136.9 183.5,137.2 184.1,137.9 184.8,138.2 185.4,138.8 186.1,139.1 186.7,139.4 187.4,140 188,140.3 188.7,140.9 
	189.3,141.3 190,141.9 190.6,142.2 191.3,142.8 191.9,143.1 192.6,143.7 193.3,144 193.9,144.7 194.6,145.3 195.2,145.6 
	195.9,146.2 196.5,146.5 197.2,147.1 197.8,147.7 198.5,148.1 199.1,148.7 199.8,149.3 200.4,149.6 201.1,150.2 201.7,150.8 
	202.4,151.4 203,151.8 203.7,152.4 204.4,153 205,153.3 205.6,153.9 206.3,154.5 207,155.1 207.6,155.5 208.3,156.1 208.9,156.7 
	209.6,157.3 210.2,157.6 210.9,158.2 211.5,158.9 212.2,159.5 212.8,160.1 213.5,160.4 214.1,161 214.8,161.6 215.4,162.2 
	216.1,162.6 216.7,163.2 217.4,163.8 218.1,164.4 218.7,165 219.4,165.3 220,166 220.7,166.6 221.3,167.2 222,167.8 222.6,168.1 
	223.3,168.7 223.9,169.4 224.6,170 225.2,170.3 225.9,170.9 226.5,171.5 227.2,172.1 227.8,172.8 228.5,173.1 229.1,173.7 
	229.8,174.3 230.4,174.9 231.1,175.2 231.8,175.8 232.4,176.4 233.1,176.8 233.7,177.4 234.4,178 235,178.6 235.7,178.9 
	236.3,179.5 237,180.2 237.6,180.5 238.3,181.1 238.9,181.7 239.6,182 240.2,182.6 240.9,183.2 241.5,183.6 242.2,184.2 
	242.8,184.5 243.5,185.1 244.1,185.4 244.8,186 245.4,186.6 246.1,186.9 246.8,187.6 247.4,187.9 248.1,188.2 248.7,188.8 
	249.4,189.1 250,189.7 250.7,190 251.3,190.4 252,191 252.6,191.3 253.3,191.6 253.9,192.2 254.6,192.5 255.2,192.8 255.9,193.1 
	256.5,193.4 257.2,194.1 257.9,194.4 258.5,194.7 259.2,195 259.8,195.3 260.5,195.6 261.1,195.9 261.8,196.2 262.4,196.5 
	263.1,196.5 263.7,196.8 264.4,197.1 265,197.4 265.7,197.4 266.3,197.8 267,198.1 267.6,198.1 268.3,198.4 268.9,198.4 
	269.6,198.7 270.2,198.7 270.9,199 271.5,199 272.2,199 272.9,199 273.5,199.3 274.2,199.3 274.8,199.3 275.5,199.3 276.1,199.3 
	276.8,199.3 277.4,199.3 278.1,199.3 278.7,199.3 279.4,199.3 280,199 280.7,199 281.3,199 282,198.7 282.6,198.7 "/>
<polyline class="st3" points="45.1,216 45.8,215.7 46.5,215.4 47.1,215 47.8,214.7 48.4,214.4 49.1,214.1 49.7,213.8 50.4,213.5 
	51,213.2 51.7,212.9 52.3,212.3 53,212 53.6,211.3 54.3,211 54.9,210.4 55.6,210.1 56.2,209.5 56.9,208.9 57.5,208.6 58.2,207.9 
	58.8,207.3 59.5,206.7 60.2,206.1 60.8,205.5 61.5,204.9 62.1,204.2 62.8,203.6 63.4,203 64.1,202.4 64.7,201.8 65.4,201.1 
	66,200.5 66.7,199.6 67.3,199 68,198.4 68.6,197.8 69.3,196.8 69.9,196.2 70.6,195.3 71.2,194.7 71.9,194.1 72.6,193.1 73.2,192.5 
	73.8,191.6 74.5,191 75.2,190 75.8,189.4 76.5,188.5 77.1,187.9 77.8,186.9 78.4,186.3 79.1,185.4 79.7,184.5 80.4,183.9 81,182.9 
	81.7,182 82.3,181.4 83,180.5 83.6,179.9 84.3,178.9 84.9,178 85.6,177.4 86.2,176.4 86.9,175.5 87.6,174.6 88.2,174 88.9,173.1 
	89.5,172.1 90.2,171.5 90.8,170.6 91.5,169.7 92.1,169 92.8,168.1 93.4,167.2 94.1,166.3 94.7,165.6 95.4,164.7 96,163.8 
	96.7,163.2 97.3,162.2 98,161.3 98.7,160.4 99.3,159.8 99.9,158.9 100.6,157.9 101.3,157.3 101.9,156.4 102.6,155.5 103.2,154.8 
	103.9,153.9 104.5,153 105.2,152.4 105.8,151.4 106.5,150.5 107.1,149.9 107.8,149 108.4,148.1 109.1,147.4 109.7,146.5 
	110.4,145.6 111,145 111.7,144 112.3,143.4 113,142.5 113.7,141.6 114.3,140.9 115,140 115.6,139.4 116.3,138.5 116.9,137.9 
	117.6,136.9 118.2,136.3 118.9,135.4 119.5,134.8 120.2,134.2 120.8,133.2 121.5,132.6 122.1,131.7 122.8,131.1 123.4,130.5 
	124.1,129.5 124.8,128.9 125.4,128.3 126.1,127.7 126.7,126.8 127.4,126.1 128,125.5 128.7,124.9 129.3,124.3 130,123.7 
	130.6,123.1 131.3,122.4 131.9,121.8 132.6,121.2 133.2,120.6 133.9,120 134.5,119.3 135.2,118.7 135.8,118.4 136.5,117.8 
	137.1,117.2 137.8,116.9 138.4,116.3 139.1,115.9 139.8,115.3 140.4,115 141.1,114.4 141.7,114.1 142.4,113.8 143,113.2 
	143.7,112.9 144.3,112.6 145,112.2 145.6,111.9 146.3,111.6 146.9,111.3 147.6,111 148.2,110.7 148.9,110.7 149.5,110.4 
	150.2,110.1 150.8,110.1 151.5,109.8 152.1,109.8 152.8,109.5 153.4,109.5 154.1,109.5 154.8,109.2 155.4,109.2 156.1,109.2 
	156.7,109.2 157.4,109.2 158,109.2 158.7,109.5 159.3,109.5 160,109.5 160.6,109.5 161.3,109.8 161.9,109.8 162.6,110.1 
	163.2,110.1 163.9,110.4 164.6,110.7 165.2,110.7 165.9,111 166.5,111.3 167.2,111.6 167.8,111.9 168.5,112.2 169.1,112.6 
	169.8,112.9 170.4,113.5 171.1,113.8 171.7,114.1 172.4,114.4 173,115 173.7,115.3 174.3,115.9 175,116.3 175.6,116.9 176.3,117.2 
	176.9,117.8 177.6,118.4 178.2,119 178.9,119.3 179.6,120 180.2,120.6 180.9,121.2 181.5,121.8 182.2,122.4 182.8,123.1 
	183.5,123.7 184.1,124.3 184.8,124.9 185.4,125.5 186.1,126.1 186.7,126.8 187.4,127.4 188,128.3 188.7,128.9 189.3,129.5 
	190,130.1 190.6,131.1 191.3,131.7 191.9,132.3 192.6,133.2 193.3,133.9 193.9,134.5 194.6,135.4 195.2,136 195.9,136.9 
	196.5,137.6 197.2,138.5 197.8,139.1 198.5,140 199.1,140.6 199.8,141.6 200.4,142.2 201.1,143.1 201.7,143.7 202.4,144.7 
	203,145.3 203.7,146.2 204.4,147.1 205,147.7 205.6,148.7 206.3,149.3 207,150.2 207.6,151.1 208.3,151.8 208.9,152.7 209.6,153.3 
	210.2,154.2 210.9,155.1 211.5,155.8 212.2,156.7 212.8,157.6 213.5,158.2 214.1,159.2 214.8,160.1 215.4,160.7 216.1,161.6 
	216.7,162.6 217.4,163.2 218.1,164.1 218.7,165 219.4,165.6 220,166.6 220.7,167.5 221.3,168.1 222,169 222.6,170 223.3,170.6 
	223.9,171.5 224.6,172.4 225.2,173.1 225.9,174 226.5,174.9 227.2,175.5 227.8,176.4 228.5,177.4 229.1,178 229.8,178.9 
	230.4,179.5 231.1,180.5 231.8,181.4 232.4,182 233.1,182.9 233.7,183.6 234.4,184.5 235,185.4 235.7,186 236.3,186.9 237,187.6 
	237.6,188.5 238.3,189.1 238.9,190 239.6,190.6 240.2,191.6 240.9,192.2 241.5,193.1 242.2,193.7 242.8,194.4 243.5,195.3 
	244.1,195.9 244.8,196.5 245.4,197.4 246.1,198.1 246.8,198.7 247.4,199.6 248.1,200.2 248.7,200.8 249.4,201.5 250,202.1 
	250.7,202.7 251.3,203.3 252,204.2 252.6,204.9 253.3,205.5 253.9,205.8 254.6,206.4 255.2,207 255.9,207.6 256.5,208.2 
	257.2,208.9 257.9,209.2 258.5,209.8 259.2,210.4 259.8,210.7 260.5,211.3 261.1,211.6 261.8,212.3 262.4,212.6 263.1,212.9 
	263.7,213.2 264.4,213.8 265,214.1 265.7,214.4 266.3,214.7 267,215 267.6,215.4 268.3,215.7 268.9,215.7 269.6,216 270.2,216.3 
	270.9,216.3 271.5,216.6 272.2,216.6 272.9,216.9 273.5,216.9 274.2,216.9 274.8,217.2 275.5,217.2 276.1,217.2 276.8,217.2 
	277.4,217.2 278.1,217.2 278.7,216.9 279.4,216.9 280,216.9 280.7,216.6 281.3,216.6 282,216.3 282.6,216.3 "/>
<polyline class="st3" points="45.1,178.3 45.8,178.3 46.5,178.3 47.1,178.3 47.8,178.3 48.4,178 49.1,178 49.7,178 50.4,178 
	51,177.7 51.7,177.7 52.3,177.7 53,177.4 53.6,177.4 54.3,177.1 54.9,177.1 55.6,177.1 56.2,176.8 56.9,176.8 57.5,176.4 
	58.2,176.4 58.8,176.1 59.5,176.1 60.2,175.8 60.8,175.8 61.5,175.5 62.1,175.5 62.8,175.2 63.4,175.2 64.1,174.9 64.7,174.9 
	65.4,174.6 66,174.3 66.7,174.3 67.3,174 68,174 68.6,173.7 69.3,173.4 69.9,173.4 70.6,173.1 71.2,172.8 71.9,172.8 72.6,172.4 
	73.2,172.4 73.8,172.1 74.5,171.8 75.2,171.5 75.8,171.5 76.5,171.2 77.1,170.9 77.8,170.9 78.4,170.6 79.1,170.3 79.7,170.3 
	80.4,170 81,169.7 81.7,169.4 82.3,169.4 83,169 83.6,168.7 84.3,168.7 84.9,168.4 85.6,168.1 86.2,167.8 86.9,167.8 87.6,167.5 
	88.2,167.2 88.9,166.9 89.5,166.9 90.2,166.6 90.8,166.3 91.5,166 92.1,166 92.8,165.6 93.4,165.3 94.1,165 94.7,165 95.4,164.7 
	96,164.4 96.7,164.1 97.3,164.1 98,163.8 98.7,163.5 99.3,163.2 99.9,163.2 100.6,162.9 101.3,162.6 101.9,162.2 102.6,162.2 
	103.2,161.9 103.9,161.6 104.5,161.3 105.2,161.3 105.8,161 106.5,160.7 107.1,160.4 107.8,160.4 108.4,160.1 109.1,159.8 
	109.7,159.5 110.4,159.5 111,159.2 111.7,158.9 112.3,158.6 113,158.6 113.7,158.2 114.3,157.9 115,157.9 115.6,157.6 116.3,157.3 
	116.9,157 117.6,157 118.2,156.7 118.9,156.4 119.5,156.4 120.2,156.1 120.8,155.8 121.5,155.8 122.1,155.5 122.8,155.1 
	123.4,155.1 124.1,154.8 124.8,154.8 125.4,154.5 126.1,154.2 126.7,154.2 127.4,153.9 128,153.9 128.7,153.6 129.3,153.3 
	130,153.3 130.6,153 131.3,153 131.9,152.7 132.6,152.7 133.2,152.4 133.9,152.4 134.5,152.1 135.2,152.1 135.8,151.8 136.5,151.8 
	137.1,151.4 137.8,151.4 138.4,151.1 139.1,151.1 139.8,151.1 140.4,150.8 141.1,150.8 141.7,150.5 142.4,150.5 143,150.5 
	143.7,150.2 144.3,150.2 145,150.2 145.6,149.9 146.3,149.9 146.9,149.9 147.6,149.9 148.2,149.9 148.9,149.6 149.5,149.6 
	150.2,149.6 150.8,149.6 151.5,149.6 152.1,149.6 152.8,149.3 153.4,149.3 154.1,149.3 154.8,149.3 155.4,149.3 156.1,149.3 
	156.7,149.3 157.4,149.3 158,149.3 158.7,149.3 159.3,149.3 160,149.3 160.6,149.3 161.3,149.6 161.9,149.6 162.6,149.6 
	163.2,149.6 163.9,149.6 164.6,149.6 165.2,149.6 165.9,149.9 166.5,149.9 167.2,149.9 167.8,149.9 168.5,150.2 169.1,150.2 
	169.8,150.2 170.4,150.5 171.1,150.5 171.7,150.5 172.4,150.8 173,150.8 173.7,150.8 174.3,151.1 175,151.1 175.6,151.4 
	176.3,151.4 176.9,151.8 177.6,151.8 178.2,151.8 178.9,152.1 179.6,152.1 180.2,152.4 180.9,152.4 181.5,152.7 182.2,152.7 
	182.8,153 183.5,153.3 184.1,153.3 184.8,153.6 185.4,153.6 186.1,153.9 186.7,153.9 187.4,154.2 188,154.5 188.7,154.5 
	189.3,154.8 190,154.8 190.6,155.1 191.3,155.5 191.9,155.5 192.6,155.8 193.3,156.1 193.9,156.1 194.6,156.4 195.2,156.7 
	195.9,156.7 196.5,157 197.2,157.3 197.8,157.3 198.5,157.6 199.1,157.9 199.8,157.9 200.4,158.2 201.1,158.6 201.7,158.9 
	202.4,158.9 203,159.2 203.7,159.5 204.4,159.5 205,159.8 205.6,160.1 206.3,160.4 207,160.4 207.6,160.7 208.3,161 208.9,161.3 
	209.6,161.3 210.2,161.6 210.9,161.9 211.5,162.2 212.2,162.2 212.8,162.6 213.5,162.9 214.1,162.9 214.8,163.2 215.4,163.5 
	216.1,163.8 216.7,163.8 217.4,164.1 218.1,164.4 218.7,164.7 219.4,164.7 220,165 220.7,165.3 221.3,165.6 222,165.6 222.6,166 
	223.3,166.3 223.9,166.6 224.6,166.6 225.2,166.9 225.9,167.2 226.5,167.5 227.2,167.5 227.8,167.8 228.5,168.1 229.1,168.4 
	229.8,168.4 230.4,168.7 231.1,169 231.8,169 232.4,169.4 233.1,169.7 233.7,170 234.4,170 235,170.3 235.7,170.6 236.3,170.6 
	237,170.9 237.6,171.2 238.3,171.2 238.9,171.5 239.6,171.8 240.2,171.8 240.9,172.1 241.5,172.4 242.2,172.4 242.8,172.8 
	243.5,173.1 244.1,173.1 244.8,173.4 245.4,173.7 246.1,173.7 246.8,174 247.4,174 248.1,174.3 248.7,174.6 249.4,174.6 250,174.9 
	250.7,174.9 251.3,175.2 252,175.2 252.6,175.5 253.3,175.5 253.9,175.8 254.6,175.8 255.2,176.1 255.9,176.1 256.5,176.4 
	257.2,176.4 257.9,176.8 258.5,176.8 259.2,177.1 259.8,177.1 260.5,177.1 261.1,177.4 261.8,177.4 262.4,177.7 263.1,177.7 
	263.7,177.7 264.4,178 265,178 265.7,178 266.3,178 267,178.3 267.6,178.3 268.3,178.3 268.9,178.3 269.6,178.3 270.2,178.6 
	270.9,178.6 271.5,178.6 272.2,178.6 272.9,178.6 273.5,178.6 274.2,178.6 274.8,178.6 275.5,178.6 276.1,178.6 276.8,178.6 
	277.4,178.6 278.1,178.6 278.7,178.6 279.4,178.6 280,178.6 280.7,178.6 281.3,178.6 282,178.6 282.6,178.6 "/>
<polyline class="st3" points="45.1,206.4 45.8,206.1 46.5,206.1 47.1,205.8 47.8,205.5 48.4,205.2 49.1,205.2 49.7,204.9 
	50.4,204.6 51,204.2 51.7,203.9 52.3,203.6 53,203.3 53.6,203 54.3,202.4 54.9,202.1 55.6,201.8 56.2,201.5 56.9,200.8 57.5,200.5 
	58.2,199.9 58.8,199.6 59.5,199 60.2,198.7 60.8,198.1 61.5,197.8 62.1,197.1 62.8,196.8 63.4,196.2 64.1,195.6 64.7,195 
	65.4,194.7 66,194.1 66.7,193.4 67.3,192.8 68,192.2 68.6,191.9 69.3,191.3 69.9,190.6 70.6,190 71.2,189.4 71.9,188.8 72.6,188.2 
	73.2,187.6 73.8,186.9 74.5,186.3 75.2,185.7 75.8,185.1 76.5,184.5 77.1,183.9 77.8,183.2 78.4,182.6 79.1,181.7 79.7,181.1 
	80.4,180.5 81,179.9 81.7,179.2 82.3,178.6 83,178 83.6,177.1 84.3,176.4 84.9,175.8 85.6,175.2 86.2,174.6 86.9,173.7 87.6,173.1 
	88.2,172.4 88.9,171.8 89.5,171.2 90.2,170.3 90.8,169.7 91.5,169 92.1,168.4 92.8,167.8 93.4,166.9 94.1,166.3 94.7,165.6 
	95.4,165 96,164.4 96.7,163.5 97.3,162.9 98,162.2 98.7,161.6 99.3,160.7 99.9,160.1 100.6,159.5 101.3,158.9 101.9,158.2 
	102.6,157.3 103.2,156.7 103.9,156.1 104.5,155.5 105.2,154.8 105.8,153.9 106.5,153.3 107.1,152.7 107.8,152.1 108.4,151.4 
	109.1,150.8 109.7,149.9 110.4,149.3 111,148.7 111.7,148.1 112.3,147.4 113,146.8 113.7,146.2 114.3,145.6 115,145 115.6,144.4 
	116.3,143.4 116.9,142.8 117.6,142.2 118.2,141.6 118.9,140.9 119.5,140.3 120.2,139.7 120.8,139.1 121.5,138.5 122.1,138.2 
	122.8,137.6 123.4,136.9 124.1,136.3 124.8,135.7 125.4,135.1 126.1,134.5 126.7,134.2 127.4,133.5 128,132.9 128.7,132.3 
	129.3,132 130,131.4 130.6,130.8 131.3,130.5 131.9,129.8 132.6,129.5 133.2,128.9 133.9,128.3 134.5,128 135.2,127.7 135.8,127.1 
	136.5,126.8 137.1,126.1 137.8,125.8 138.4,125.5 139.1,125.2 139.8,124.6 140.4,124.3 141.1,124 141.7,123.7 142.4,123.4 
	143,123.1 143.7,122.7 144.3,122.4 145,122.1 145.6,121.8 146.3,121.5 146.9,121.5 147.6,121.2 148.2,120.9 148.9,120.9 
	149.5,120.6 150.2,120.6 150.8,120.3 151.5,120.3 152.1,120 152.8,120 153.4,120 154.1,120 154.8,119.7 155.4,119.7 156.1,119.7 
	156.7,119.7 157.4,119.7 158,119.7 158.7,119.7 159.3,119.7 160,120 160.6,120 161.3,120 161.9,120.3 162.6,120.3 163.2,120.3 
	163.9,120.6 164.6,120.9 165.2,120.9 165.9,121.2 166.5,121.2 167.2,121.5 167.8,121.8 168.5,122.1 169.1,122.4 169.8,122.7 
	170.4,122.7 171.1,123.1 171.7,123.4 172.4,124 173,124.3 173.7,124.6 174.3,124.9 175,125.2 175.6,125.5 176.3,126.1 176.9,126.4 
	177.6,126.8 178.2,127.4 178.9,127.7 179.6,128.3 180.2,128.6 180.9,129.2 181.5,129.5 182.2,130.1 182.8,130.5 183.5,131.1 
	184.1,131.7 184.8,132 185.4,132.6 186.1,133.2 186.7,133.5 187.4,134.2 188,134.8 188.7,135.4 189.3,136 190,136.3 190.6,136.9 
	191.3,137.6 191.9,138.2 192.6,138.8 193.3,139.4 193.9,140 194.6,140.6 195.2,141.3 195.9,141.9 196.5,142.5 197.2,143.1 
	197.8,143.7 198.5,144.4 199.1,145 199.8,145.6 200.4,146.2 201.1,146.8 201.7,147.4 202.4,148.1 203,148.7 203.7,149.3 
	204.4,149.9 205,150.8 205.6,151.4 206.3,152.1 207,152.7 207.6,153.3 208.3,153.9 208.9,154.5 209.6,155.5 210.2,156.1 
	210.9,156.7 211.5,157.3 212.2,157.9 212.8,158.6 213.5,159.5 214.1,160.1 214.8,160.7 215.4,161.3 216.1,161.9 216.7,162.6 
	217.4,163.5 218.1,164.1 218.7,164.7 219.4,165.3 220,166 220.7,166.9 221.3,167.5 222,168.1 222.6,168.7 223.3,169.4 223.9,170 
	224.6,170.9 225.2,171.5 225.9,172.1 226.5,172.8 227.2,173.4 227.8,174 228.5,174.9 229.1,175.5 229.8,176.1 230.4,176.8 
	231.1,177.4 231.8,178 232.4,178.6 233.1,179.5 233.7,180.2 234.4,180.8 235,181.4 235.7,182 236.3,182.6 237,183.2 237.6,183.9 
	238.3,184.5 238.9,185.1 239.6,185.7 240.2,186.3 240.9,186.9 241.5,187.6 242.2,188.2 242.8,188.8 243.5,189.4 244.1,190 
	244.8,190.6 245.4,191.3 246.1,191.9 246.8,192.5 247.4,192.8 248.1,193.4 248.7,194.1 249.4,194.7 250,195 250.7,195.6 
	251.3,196.2 252,196.5 252.6,197.1 253.3,197.8 253.9,198.1 254.6,198.7 255.2,199 255.9,199.6 256.5,199.9 257.2,200.5 
	257.9,200.8 258.5,201.1 259.2,201.8 259.8,202.1 260.5,202.4 261.1,202.7 261.8,203.3 262.4,203.6 263.1,203.9 263.7,204.2 
	264.4,204.6 265,204.9 265.7,204.9 266.3,205.2 267,205.5 267.6,205.8 268.3,206.1 268.9,206.1 269.6,206.4 270.2,206.4 
	270.9,206.7 271.5,206.7 272.2,207 272.9,207 273.5,207 274.2,207 274.8,207.3 275.5,207.3 276.1,207.3 276.8,207.3 277.4,207.3 
	278.1,207.3 278.7,207.3 279.4,207 280,207 280.7,207 281.3,206.7 282,206.7 282.6,206.7 "/>
<polyline class="st3" points="45.1,198.4 45.8,198.4 46.5,198.1 47.1,198.1 47.8,197.8 48.4,197.8 49.1,197.4 49.7,197.1 
	50.4,197.1 51,196.8 51.7,196.5 52.3,196.2 53,195.9 53.6,195.6 54.3,195.3 54.9,195.3 55.6,194.7 56.2,194.4 56.9,194.1 
	57.5,193.7 58.2,193.4 58.8,193.1 59.5,192.8 60.2,192.5 60.8,191.9 61.5,191.6 62.1,191.3 62.8,190.6 63.4,190.4 64.1,190 
	64.7,189.4 65.4,189.1 66,188.5 66.7,188.2 67.3,187.9 68,187.3 68.6,186.9 69.3,186.3 69.9,185.7 70.6,185.4 71.2,184.8 
	71.9,184.5 72.6,183.9 73.2,183.6 73.8,182.9 74.5,182.3 75.2,182 75.8,181.4 76.5,180.8 77.1,180.5 77.8,179.9 78.4,179.2 
	79.1,178.9 79.7,178.3 80.4,177.7 81,177.1 81.7,176.8 82.3,176.1 83,175.5 83.6,174.9 84.3,174.6 84.9,174 85.6,173.4 86.2,172.8 
	86.9,172.1 87.6,171.8 88.2,171.2 88.9,170.6 89.5,170 90.2,169.4 90.8,169 91.5,168.4 92.1,167.8 92.8,167.2 93.4,166.6 
	94.1,166.3 94.7,165.6 95.4,165 96,164.4 96.7,163.8 97.3,163.5 98,162.9 98.7,162.2 99.3,161.6 99.9,161 100.6,160.7 101.3,160.1 
	101.9,159.5 102.6,158.9 103.2,158.2 103.9,157.9 104.5,157.3 105.2,156.7 105.8,156.1 106.5,155.5 107.1,155.1 107.8,154.5 
	108.4,153.9 109.1,153.3 109.7,153 110.4,152.4 111,151.8 111.7,151.1 112.3,150.8 113,150.2 113.7,149.6 114.3,149.3 115,148.7 
	115.6,148.1 116.3,147.7 116.9,147.1 117.6,146.5 118.2,146.2 118.9,145.6 119.5,145 120.2,144.7 120.8,144 121.5,143.7 
	122.1,143.1 122.8,142.5 123.4,142.2 124.1,141.6 124.8,141.3 125.4,140.6 126.1,140.3 126.7,139.7 127.4,139.4 128,139.1 
	128.7,138.5 129.3,138.2 130,137.6 130.6,137.2 131.3,136.9 131.9,136.6 132.6,136 133.2,135.7 133.9,135.4 134.5,135.1 
	135.2,134.5 135.8,134.2 136.5,133.9 137.1,133.5 137.8,133.2 138.4,132.9 139.1,132.6 139.8,132.3 140.4,132 141.1,131.7 
	141.7,131.4 142.4,131.1 143,131.1 143.7,130.8 144.3,130.5 145,130.1 145.6,130.1 146.3,129.8 146.9,129.5 147.6,129.5 
	148.2,129.2 148.9,129.2 149.5,128.9 150.2,128.9 150.8,128.6 151.5,128.6 152.1,128.6 152.8,128.3 153.4,128.3 154.1,128.3 
	154.8,128.3 155.4,128.3 156.1,128.3 156.7,128.3 157.4,128.3 158,128.3 158.7,128.3 159.3,128.3 160,128.3 160.6,128.3 
	161.3,128.3 161.9,128.6 162.6,128.6 163.2,128.6 163.9,128.9 164.6,128.9 165.2,129.2 165.9,129.2 166.5,129.5 167.2,129.5 
	167.8,129.8 168.5,130.1 169.1,130.1 169.8,130.5 170.4,130.8 171.1,131.1 171.7,131.1 172.4,131.4 173,131.7 173.7,132 
	174.3,132.3 175,132.6 175.6,132.9 176.3,133.2 176.9,133.5 177.6,133.9 178.2,134.2 178.9,134.5 179.6,135.1 180.2,135.4 
	180.9,135.7 181.5,136 182.2,136.3 182.8,136.9 183.5,137.2 184.1,137.6 184.8,138.2 185.4,138.5 186.1,138.8 186.7,139.4 
	187.4,139.7 188,140.3 188.7,140.6 189.3,141.3 190,141.6 190.6,142.2 191.3,142.5 191.9,143.1 192.6,143.4 193.3,144 193.9,144.4 
	194.6,145 195.2,145.3 195.9,145.9 196.5,146.5 197.2,146.8 197.8,147.4 198.5,148.1 199.1,148.4 199.8,149 200.4,149.6 
	201.1,149.9 201.7,150.5 202.4,151.1 203,151.4 203.7,152.1 204.4,152.7 205,153.3 205.6,153.6 206.3,154.2 207,154.8 207.6,155.1 
	208.3,155.8 208.9,156.4 209.6,157 210.2,157.3 210.9,157.9 211.5,158.6 212.2,159.2 212.8,159.8 213.5,160.1 214.1,160.7 
	214.8,161.3 215.4,161.9 216.1,162.2 216.7,162.9 217.4,163.5 218.1,164.1 218.7,164.7 219.4,165 220,165.6 220.7,166.3 
	221.3,166.9 222,167.2 222.6,167.8 223.3,168.4 223.9,169 224.6,169.7 225.2,170 225.9,170.6 226.5,171.2 227.2,171.8 227.8,172.1 
	228.5,172.8 229.1,173.4 229.8,174 230.4,174.3 231.1,174.9 231.8,175.5 232.4,176.1 233.1,176.4 233.7,177.1 234.4,177.7 235,178 
	235.7,178.6 236.3,179.2 237,179.9 237.6,180.2 238.3,180.8 238.9,181.4 239.6,181.7 240.2,182.3 240.9,182.6 241.5,183.2 
	242.2,183.9 242.8,184.2 243.5,184.8 244.1,185.1 244.8,185.7 245.4,186 246.1,186.6 246.8,186.9 247.4,187.6 248.1,187.9 
	248.7,188.5 249.4,188.8 250,189.4 250.7,189.7 251.3,190 252,190.6 252.6,191 253.3,191.3 253.9,191.9 254.6,192.2 255.2,192.5 
	255.9,192.8 256.5,193.1 257.2,193.7 257.9,194.1 258.5,194.4 259.2,194.7 259.8,195 260.5,195.3 261.1,195.6 261.8,195.9 
	262.4,196.2 263.1,196.5 263.7,196.5 264.4,196.8 265,197.1 265.7,197.4 266.3,197.4 267,197.8 267.6,198.1 268.3,198.1 
	268.9,198.4 269.6,198.4 270.2,198.7 270.9,198.7 271.5,198.7 272.2,199 272.9,199 273.5,199 274.2,199 274.8,199.3 275.5,199.3 
	276.1,199.3 276.8,199.3 277.4,199.3 278.1,199.3 278.7,199 279.4,199 280,199 280.7,199 281.3,199 282,198.7 282.6,198.7 "/>
<polyline class="st3" points="45.1,310.1 45.8,309.2 46.5,308 47.1,306.7 47.8,305.5 48.4,304.3 49.1,303 49.7,301.5 50.4,299.9 
	51,298.7 51.7,296.9 52.3,295.3 53,293.8 53.6,292.2 54.3,290.4 54.9,288.5 55.6,287 56.2,285.1 56.9,283.3 57.5,281.4 58.2,279.6 
	58.8,277.7 59.5,275.9 60.2,273.7 60.8,271.9 61.5,270 62.1,267.8 62.8,266 63.4,263.8 64.1,262 64.7,259.8 65.4,258 66,255.8 
	66.7,253.9 67.3,251.8 68,249.6 68.6,247.8 69.3,245.6 69.9,243.8 70.6,241.6 71.2,239.4 71.9,237.6 72.6,235.4 73.2,233.3 
	73.8,231.4 74.5,229.2 75.2,227.1 75.8,224.9 76.5,223.1 77.1,220.9 77.8,218.8 78.4,216.9 79.1,214.7 79.7,212.6 80.4,210.7 
	81,208.6 81.7,206.4 82.3,204.6 83,202.4 83.6,200.2 84.3,198.4 84.9,196.2 85.6,194.4 86.2,192.2 86.9,190 87.6,188.2 88.2,186 
	88.9,183.9 89.5,182 90.2,179.9 90.8,178 91.5,175.8 92.1,173.7 92.8,171.8 93.4,169.7 94.1,167.5 94.7,165.6 95.4,163.5 96,161.6 
	96.7,159.5 97.3,157.3 98,155.5 98.7,153.3 99.3,151.4 99.9,149.3 100.6,147.1 101.3,145.3 101.9,143.1 102.6,140.9 103.2,139.1 
	103.9,136.9 104.5,134.8 105.2,132.9 105.8,130.8 106.5,128.9 107.1,126.8 107.8,124.6 108.4,122.7 109.1,120.6 109.7,118.4 
	110.4,116.3 111,114.4 111.7,112.2 112.3,110.1 113,108.2 113.7,106.1 114.3,103.9 115,101.8 115.6,99.9 116.3,97.7 116.9,95.6 
	117.6,93.4 118.2,91.6 118.9,89.4 119.5,87.2 120.2,85.1 120.8,82.9 121.5,81.1 122.1,78.9 122.8,76.7 123.4,74.6 124.1,72.4 
	124.8,70.6 125.4,68.4 126.1,66.2 126.7,64.1 127.4,61.9 128,59.8 128.7,57.9 129.3,55.8 "/>
<polyline class="st3" points="185.4,60.7 186.1,62.8 186.7,65 187.4,67.2 188,69 188.7,71.2 189.3,73.3 190,75.5 190.6,77.4 
	191.3,79.5 191.9,81.7 192.6,83.8 193.3,85.7 193.9,87.8 194.6,90 195.2,91.9 195.9,94 196.5,96.2 197.2,98 197.8,100.2 
	198.5,102.4 199.1,104.2 199.8,106.4 200.4,108.5 201.1,110.4 201.7,112.6 202.4,114.7 203,116.6 203.7,118.7 204.4,120.6 
	205,122.7 205.6,124.9 206.3,126.8 207,128.9 207.6,130.8 208.3,132.9 208.9,134.8 209.6,136.9 210.2,138.8 210.9,140.9 
	211.5,142.8 212.2,145 212.8,146.8 213.5,149 214.1,151.1 214.8,153 215.4,155.1 216.1,157 216.7,159.2 217.4,161 218.1,163.2 
	218.7,165 219.4,167.2 220,169 220.7,171.2 221.3,173.1 222,175.2 222.6,177.1 223.3,179.2 223.9,181.1 224.6,183.2 225.2,185.1 
	225.9,187.3 226.5,189.1 227.2,191.3 227.8,193.1 228.5,195.3 229.1,197.1 229.8,199.3 230.4,201.5 231.1,203.3 231.8,205.5 
	232.4,207.3 233.1,209.5 233.7,211.3 234.4,213.5 235,215.7 235.7,217.5 236.3,219.7 237,221.5 237.6,223.7 238.3,225.9 
	238.9,227.7 239.6,229.9 240.2,231.7 240.9,233.9 241.5,236 242.2,237.9 242.8,240.1 243.5,241.9 244.1,244.1 244.8,245.9 
	245.4,248.1 246.1,250.2 246.8,252.1 247.4,254.2 248.1,256.1 248.7,258.3 249.4,260.1 250,262 250.7,264.1 251.3,266 252,268.1 
	252.6,270 253.3,271.9 253.9,273.7 254.6,275.9 255.2,277.7 255.9,279.6 256.5,281.4 257.2,283.3 257.9,285.1 258.5,287 
	259.2,288.5 259.8,290.4 260.5,291.9 261.1,293.8 261.8,295.3 262.4,296.9 263.1,298.4 263.7,299.9 264.4,301.5 265,302.7 
	265.7,304.3 266.3,305.5 267,306.7 267.6,308 268.3,308.9 268.9,310.1 269.6,311 270.2,312 270.9,312.6 271.5,313.5 272.2,314.1 
	272.9,314.5 273.5,315.1 274.2,315.4 274.8,315.7 275.5,315.7 276.1,316 276.8,316 277.4,315.7 278.1,315.4 278.7,315.1 
	279.4,314.8 280,314.1 280.7,313.5 281.3,312.9 282,312.3 282.6,311.4 "/>
<polyline class="st3" points="45.1,183.6 45.8,183.6 46.5,183.6 47.1,183.2 47.8,183.2 48.4,183.2 49.1,182.9 49.7,182.9 
	50.4,182.6 51,182.6 51.7,182.6 52.3,182.3 53,182.3 53.6,182 54.3,182 54.9,181.7 55.6,181.4 56.2,181.4 56.9,181.1 57.5,181.1 
	58.2,180.8 58.8,180.5 59.5,180.5 60.2,180.2 60.8,179.9 61.5,179.9 62.1,179.5 62.8,179.2 63.4,178.9 64.1,178.9 64.7,178.6 
	65.4,178.3 66,178 66.7,177.7 67.3,177.7 68,177.4 68.6,177.1 69.3,176.8 69.9,176.4 70.6,176.1 71.2,175.8 71.9,175.8 72.6,175.5 
	73.2,175.2 73.8,174.9 74.5,174.6 75.2,174.3 75.8,174 76.5,173.7 77.1,173.4 77.8,173.1 78.4,172.8 79.1,172.4 79.7,172.1 
	80.4,171.8 81,171.5 81.7,171.2 82.3,170.9 83,170.6 83.6,170.3 84.3,170 84.9,169.7 85.6,169.4 86.2,169 86.9,168.7 87.6,168.4 
	88.2,168.1 88.9,167.8 89.5,167.5 90.2,167.2 90.8,166.9 91.5,166.6 92.1,166.3 92.8,166 93.4,165.6 94.1,165.3 94.7,165 
	95.4,164.7 96,164.4 96.7,164.1 97.3,163.8 98,163.5 98.7,163.2 99.3,162.9 99.9,162.6 100.6,162.2 101.3,161.9 101.9,161.6 
	102.6,161.3 103.2,161 103.9,160.7 104.5,160.4 105.2,160.1 105.8,159.8 106.5,159.5 107.1,159.2 107.8,158.9 108.4,158.6 
	109.1,158.2 109.7,157.9 110.4,157.6 111,157.3 111.7,157 112.3,156.7 113,156.4 113.7,156.1 114.3,155.8 115,155.5 115.6,155.1 
	116.3,154.8 116.9,154.5 117.6,154.2 118.2,153.9 118.9,153.6 119.5,153.3 120.2,153 120.8,152.7 121.5,152.7 122.1,152.4 
	122.8,152.1 123.4,151.8 124.1,151.4 124.8,151.1 125.4,150.8 126.1,150.8 126.7,150.5 127.4,150.2 128,149.9 128.7,149.6 
	129.3,149.3 130,149.3 130.6,149 131.3,148.7 131.9,148.7 132.6,148.4 133.2,148.1 133.9,147.7 134.5,147.7 135.2,147.4 
	135.8,147.1 136.5,147.1 137.1,146.8 137.8,146.8 138.4,146.5 139.1,146.2 139.8,146.2 140.4,145.9 141.1,145.9 141.7,145.6 
	142.4,145.6 143,145.3 143.7,145.3 144.3,145.3 145,145 145.6,145 146.3,144.7 146.9,144.7 147.6,144.7 148.2,144.7 148.9,144.4 
	149.5,144.4 150.2,144.4 150.8,144.4 151.5,144 152.1,144 152.8,144 153.4,144 154.1,144 154.8,144 155.4,144 156.1,144 156.7,144 
	157.4,144 158,144 158.7,144 159.3,144 160,144 160.6,144 161.3,144 161.9,144 162.6,144.4 163.2,144.4 163.9,144.4 164.6,144.4 
	165.2,144.4 165.9,144.7 166.5,144.7 167.2,144.7 167.8,145 168.5,145 169.1,145.3 169.8,145.3 170.4,145.3 171.1,145.6 
	171.7,145.6 172.4,145.9 173,145.9 173.7,146.2 174.3,146.2 175,146.5 175.6,146.5 176.3,146.8 176.9,147.1 177.6,147.1 
	178.2,147.4 178.9,147.7 179.6,147.7 180.2,148.1 180.9,148.4 181.5,148.4 182.2,148.7 182.8,149 183.5,149 184.1,149.3 
	184.8,149.6 185.4,149.9 186.1,150.2 186.7,150.2 187.4,150.5 188,150.8 188.7,151.1 189.3,151.4 190,151.4 190.6,151.8 
	191.3,152.1 191.9,152.4 192.6,152.7 193.3,153 193.9,153.3 194.6,153.6 195.2,153.9 195.9,153.9 196.5,154.2 197.2,154.5 
	197.8,154.8 198.5,155.1 199.1,155.5 199.8,155.8 200.4,156.1 201.1,156.4 201.7,156.7 202.4,157 203,157.3 203.7,157.6 
	204.4,157.9 205,158.2 205.6,158.6 206.3,158.9 207,159.2 207.6,159.5 208.3,159.8 208.9,160.1 209.6,160.4 210.2,160.7 210.9,161 
	211.5,161.3 212.2,161.6 212.8,161.9 213.5,162.2 214.1,162.6 214.8,162.9 215.4,163.2 216.1,163.5 216.7,163.8 217.4,164.1 
	218.1,164.4 218.7,164.7 219.4,165 220,165.3 220.7,165.6 221.3,166 222,166.3 222.6,166.6 223.3,166.9 223.9,167.2 224.6,167.5 
	225.2,167.8 225.9,168.1 226.5,168.4 227.2,168.7 227.8,169 228.5,169.4 229.1,169.7 229.8,170 230.4,170.3 231.1,170.6 
	231.8,170.9 232.4,171.2 233.1,171.5 233.7,171.8 234.4,172.1 235,172.4 235.7,172.8 236.3,173.1 237,173.4 237.6,173.7 238.3,174 
	238.9,174 239.6,174.3 240.2,174.6 240.9,174.9 241.5,175.2 242.2,175.5 242.8,175.8 243.5,176.1 244.1,176.4 244.8,176.4 
	245.4,176.8 246.1,177.1 246.8,177.4 247.4,177.7 248.1,178 248.7,178 249.4,178.3 250,178.6 250.7,178.9 251.3,179.2 252,179.2 
	252.6,179.5 253.3,179.9 253.9,179.9 254.6,180.2 255.2,180.5 255.9,180.5 256.5,180.8 257.2,181.1 257.9,181.1 258.5,181.4 
	259.2,181.7 259.8,181.7 260.5,182 261.1,182 261.8,182.3 262.4,182.3 263.1,182.6 263.7,182.6 264.4,182.9 265,182.9 265.7,182.9 
	266.3,183.2 267,183.2 267.6,183.2 268.3,183.6 268.9,183.6 269.6,183.6 270.2,183.6 270.9,183.9 271.5,183.9 272.2,183.9 
	272.9,183.9 273.5,183.9 274.2,183.9 274.8,183.9 275.5,183.9 276.1,184.2 276.8,184.2 277.4,183.9 278.1,183.9 278.7,183.9 
	279.4,183.9 280,183.9 280.7,183.9 281.3,183.9 282,183.9 282.6,183.6 "/>
<polyline class="st4" points="45.1,162.9 45.8,162.9 46.5,162.9 47.1,162.9 47.8,162.9 48.4,162.9 49.1,162.9 49.7,162.9 
	50.4,162.9 51,162.9 51.7,162.9 52.3,162.9 53,162.9 53.6,162.9 54.3,162.9 54.9,162.9 55.6,162.9 56.2,162.9 56.9,162.9 
	57.5,162.9 58.2,163.2 58.8,163.2 59.5,163.2 60.2,163.2 60.8,163.2 61.5,163.2 62.1,163.2 62.8,163.2 63.4,163.2 64.1,163.2 
	64.7,163.2 65.4,163.2 66,163.2 66.7,163.2 67.3,163.5 68,163.5 68.6,163.5 69.3,163.5 69.9,163.5 70.6,163.5 71.2,163.5 
	71.9,163.5 72.6,163.5 73.2,163.5 73.8,163.5 74.5,163.5 75.2,163.5 75.8,163.8 76.5,163.8 77.1,163.8 77.8,163.8 78.4,163.8 
	79.1,163.8 79.7,163.8 80.4,163.8 81,163.8 81.7,163.8 82.3,163.8 83,163.8 83.6,163.8 84.3,164.1 84.9,164.1 85.6,164.1 
	86.2,164.1 86.9,164.1 87.6,164.1 88.2,164.1 88.9,164.1 89.5,164.1 90.2,164.1 90.8,164.1 91.5,164.1 92.1,164.1 92.8,164.4 
	93.4,164.4 94.1,164.4 94.7,164.4 95.4,164.4 96,164.4 96.7,164.4 97.3,164.4 98,164.4 98.7,164.4 99.3,164.4 99.9,164.4 
	100.6,164.4 101.3,164.4 101.9,164.7 102.6,164.7 103.2,164.7 103.9,164.7 104.5,164.7 105.2,164.7 105.8,164.7 106.5,164.7 
	107.1,164.7 107.8,164.7 108.4,164.7 109.1,164.7 109.7,164.7 110.4,164.7 111,164.7 111.7,164.7 112.3,165 113,165 113.7,165 
	114.3,165 115,165 115.6,165 116.3,165 116.9,165 117.6,165 118.2,165 118.9,165 119.5,165 120.2,165 120.8,165 121.5,165 
	122.1,165 122.8,165 123.4,165 124.1,165 124.8,165 125.4,165.3 126.1,165.3 126.7,165.3 127.4,165.3 128,165.3 128.7,165.3 
	129.3,165.3 130,165.3 130.6,165.3 131.3,165.3 131.9,165.3 132.6,165.3 133.2,165.3 133.9,165.3 134.5,165.3 135.2,165.3 
	135.8,165.3 136.5,165.3 137.1,165.3 137.8,165.3 138.4,165.3 139.1,165.3 139.8,165.3 140.4,165.3 141.1,165.3 141.7,165.3 
	142.4,165.3 143,165.3 143.7,165.3 144.3,165.3 145,165.3 145.6,165.3 146.3,165.3 146.9,165.3 147.6,165.3 148.2,165.3 
	148.9,165.3 149.5,165.3 150.2,165.3 150.8,165.3 151.5,165.6 152.1,165.6 152.8,165.6 153.4,165.6 154.1,165.6 154.8,165.6 
	155.4,165.6 156.1,165.6 156.7,165.6 157.4,165.6 158,165.6 158.7,165.6 159.3,165.6 160,165.6 160.6,165.6 161.3,165.6 
	161.9,165.6 162.6,165.6 163.2,165.6 163.9,165.3 164.6,165.3 165.2,165.3 165.9,165.3 166.5,165.3 167.2,165.3 167.8,165.3 
	168.5,165.3 169.1,165.3 169.8,165.3 170.4,165.3 171.1,165.3 171.7,165.3 172.4,165.3 173,165.3 173.7,165.3 174.3,165.3 
	175,165.3 175.6,165.3 176.3,165.3 176.9,165.3 177.6,165.3 178.2,165.3 178.9,165.3 179.6,165.3 180.2,165.3 180.9,165.3 
	181.5,165.3 182.2,165.3 182.8,165.3 183.5,165.3 184.1,165.3 184.8,165.3 185.4,165.3 186.1,165.3 186.7,165.3 187.4,165.3 
	188,165.3 188.7,165.3 189.3,165 190,165 190.6,165 191.3,165 191.9,165 192.6,165 193.3,165 193.9,165 194.6,165 195.2,165 
	195.9,165 196.5,165 197.2,165 197.8,165 198.5,165 199.1,165 199.8,165 200.4,165 201.1,165 201.7,165 202.4,165 203,164.7 
	203.7,164.7 204.4,164.7 205,164.7 205.6,164.7 206.3,164.7 207,164.7 207.6,164.7 208.3,164.7 208.9,164.7 209.6,164.7 
	210.2,164.7 210.9,164.7 211.5,164.7 212.2,164.7 212.8,164.7 213.5,164.4 214.1,164.4 214.8,164.4 215.4,164.4 216.1,164.4 
	216.7,164.4 217.4,164.4 218.1,164.4 218.7,164.4 219.4,164.4 220,164.4 220.7,164.4 221.3,164.4 222,164.4 222.6,164.1 
	223.3,164.1 223.9,164.1 224.6,164.1 225.2,164.1 225.9,164.1 226.5,164.1 227.2,164.1 227.8,164.1 228.5,164.1 229.1,164.1 
	229.8,164.1 230.4,164.1 231.1,163.8 231.8,163.8 232.4,163.8 233.1,163.8 233.7,163.8 234.4,163.8 235,163.8 235.7,163.8 
	236.3,163.8 237,163.8 237.6,163.8 238.3,163.8 238.9,163.8 239.6,163.5 240.2,163.5 240.9,163.5 241.5,163.5 242.2,163.5 
	242.8,163.5 243.5,163.5 244.1,163.5 244.8,163.5 245.4,163.5 246.1,163.5 246.8,163.5 247.4,163.5 248.1,163.2 248.7,163.2 
	249.4,163.2 250,163.2 250.7,163.2 251.3,163.2 252,163.2 252.6,163.2 253.3,163.2 253.9,163.2 254.6,163.2 255.2,163.2 
	255.9,163.2 256.5,163.2 257.2,162.9 257.9,162.9 258.5,162.9 259.2,162.9 259.8,162.9 260.5,162.9 261.1,162.9 261.8,162.9 
	262.4,162.9 263.1,162.9 263.7,162.9 264.4,162.9 265,162.9 265.7,162.9 266.3,162.9 267,162.9 267.6,162.9 268.3,162.9 
	268.9,162.9 269.6,162.9 270.2,162.9 270.9,162.9 271.5,162.9 272.2,162.9 272.9,162.9 273.5,162.9 274.2,162.9 274.8,162.9 
	275.5,162.9 276.1,162.9 276.8,162.9 277.4,162.9 278.1,162.9 278.7,162.9 279.4,162.9 280,162.9 280.7,162.9 281.3,162.9 
	282,162.9 282.6,162.9 "/>
<rect class="st1" width="300" height="450"/>
<rect x="35.4" y="290.9" class="st1" width="4.9" height="10.4"/>
<text transform="matrix(1 0 0 1 35.4458 298.46)" class="st5 st6 st7">5</text>
<rect x="31.6" y="198.3" class="st1" width="9.8" height="10.4"/>
<text transform="matrix(1 0 0 1 31.5518 205.8501)" class="st5 st6 st7">10</text>
<rect x="27" y="393.2" class="st1" width="36.2" height="10.4"/>
<text transform="matrix(1 0 0 1 27.0352 400.7695)" class="st5 st6 st7">Jan 2023</text>
<text transform="matrix(1 0 0 1 86.0122 400.77)" class="st5 st6 st7">Apr 2023</text>
<text transform="matrix(1 0 0 1 146.6046 400.77)" class="st5 st6 st7">Jul 2023</text>
<text transform="matrix(1 0 0 1 205.4143 400.77)" class="st5 st6 st7">Oct 2023</text>
<rect x="265.2" y="394.2" class="st1" width="36.2" height="10.4"/>
<text transform="matrix(1 0 0 1 265.1953 401.7695)" class="st5 st6 st7">Jan 2024</text>
<text transform="matrix(1 0 0 1 163.8954 440.0305)" class="st6 st7">Data: sunrise-and-sunset.com</text>
<text transform="matrix(1 -5.706373e-03 5.706373e-03 1 89.423 209.6377)"><tspan x="0" y="0" class="st8 st9 st10">year round, days in nairobi </tspan><tspan x="7.8" y="14.4" class="st8 st9 st10">are about 12 hours long</tspan></text>
<g>
	<line class="st8" x1="149.9" y1="166.1" x2="150.1" y2="199.8"/>
	<g>
		<line class="st11" x1="149.9" y1="171.7" x2="150.1" y2="199.8"/>
		<g>
			<polygon class="st8" points="143.6,183.6 145.5,184.3 149.9,171.9 154.5,184.2 156.4,183.5 149.9,166.1 			"/>
		</g>
	</g>
	<line class="st8" x1="149.9" y1="166.1" x2="150.1" y2="199.8"/>
</g>
<text transform="matrix(1 0 0 1 5.712891e-02 113.23)" class="st9 st10">15 hours</text>
</svg>
